<svg id="Capa_1" data-name="Capa 1" xmlns="http://www.w3.org/2000/svg" viewBox="0 0 290.6 412.98" style=""><defs><style>.cls-1{fill:none;stroke:#0073af;stroke-linecap:round;stroke-linejoin:round;stroke-width:2px;}</style></defs><path class="cls-1 KSZZSutE_0" d="M417.81,243.86c-12.26,20.1-26.37,38.67-45.45,52.79-10.85,11.44-31.91,17.83-33.72,35.15.52,19,10.24,33.76,23.68,46.2,9.07,2.62,15.07-5.87,23.84-11.55,14.08,17.95-1.32,53.48-16.25,68.29,10.47,16.19,10.21,17.33-1.57,30.19-9.59,14.06-28.52,20.13-13.5,37.77-6.83,17.56-25.42,8.35-34,23.05-8.21-.63-14.49-.81-17.11,8.34-10.24-2-21.14-7.2-25.85,9.3l30.05,10.24c-11.2,17.47-3.95,21.71,11.47,26-6.25,19.81-15.5,9.44-27.38,19.4-11.07,10-12.22,14.16-26.65,4.68l-3,5" transform="translate(-128.21 -197.11)"></path><path class="cls-1 KSZZSutE_1" d="M316.87,205.88c23.27-21.95,50.33,8,69.29,23.75,15.57-6.61,15.87,16.14,31.65,14.23" transform="translate(-128.21 -197.11)"></path><path class="cls-1 KSZZSutE_2" d="M316.87,205.88c13.94,11.11,13,26.77,10.87,40.3-15.32,9.65-30.81,5.48-47.25,4-12.35,13.41-42.12,27.58-27.61,50.1-4.76,3.55-9.95,6.89-14.51,10.94-12.66,13.53-8,47.25-12.87,66.12" transform="translate(-128.21 -197.11)"></path><path class="cls-1 KSZZSutE_3" d="M149.65,361.87c-3,3.88-9.07,10.7-12.29,14.92,1.9,17.75,3.7,38.44,16.45,52.93,20.89,24.92-2.45,35.58-8,57.24l9.94,1.65" transform="translate(-128.21 -197.11)"></path><path class="cls-1 KSZZSutE_4" d="M225.5,377.36c-15.86,27.46,4.86,32.44-1.91,57.84,6,7.32,13.88,11.12,8.15,21.93L217.2,449.8c-8.18,8.26,5.28,12.25,3,18.68-2.52,7.87-5,15.74-8.16,25.41-17.53,6.91,2.91-17.24-25.4-27.64-10.09,10.95-37.09,17.54-26,32.87l-31.39,9.46c13.31,15.28,6.1,19.35,15.65,31.15,10,10.58,18.21,23.54,21.52,40.06,6.62,3.28,13.45,6.56,20.35,9.93" transform="translate(-128.21 -197.11)"></path><path class="cls-1 KSZZSutE_5" d="M164.44,338.46c10,2.68,15.55,3.46,18.91,18.32l-13.12,8.59,8.21,4.66-.34-2.25c12.79-.76,30.78-11.53,34.05,5.58l.9-1.47c8.66,3.76,16.63,10.12,27.32,2.21" transform="translate(-128.21 -197.11)"></path><path class="cls-1 KSZZSutE_6" d="M262.4,608.72c-5.35-9.46-5.12-21.22-7.17-31.39-26.43-3.78-38.86,13.54-63.35,3.87-1.52,1.9-3.34,6.25-5.15,8.52" transform="translate(-128.21 -197.11)"></path><path class="cls-1 KSZZSutE_7" d="M240.84,370.91c-2.3-3.63-5.06-10.27-7.26-13.75,9.5-9.3,10.77-9.14,17.26,1.72-8.45,8.58-11.73,13.25-6.42,26.3l8-21.62c6.11,3.13,7.16,5.18,4.89,10.7-1,5.48-5.6,18.46,1.15,20.73,9.11-10.52,15.1-28.65,27.72-9-2.08,9.8-5.11,19.83-15.84,20.48,2.34,14.28-4.34,9.55-15.38,11.64-3.26,8.33-7.15,18.89-11.51,29.24-3.37,8,3.15,10.53,5.69,13.63,20.72-3,70.48,3.7,56.84-30.05,3.77-8.83,10.73-7.1,16.93-5.09,30,13.21,35.41-37.57,56.78-6.32" transform="translate(-128.21 -197.11)"></path><path class="cls-1 KSZZSutE_8" d="M359,411.24c-9.08-10.39-16.57-37-34.11-24.86C315.77,392,306.18,396.9,295,403.1c-5.61,11.34-2.4,19.68,11.4,24.65" transform="translate(-128.21 -197.11)"></path><path class="cls-1 KSZZSutE_9" d="M149.65,361.87c19.49,11.73,1-15.88,13.88-22.45" transform="translate(-128.21 -197.11)"></path><style data-made-with="vivus-instant">.KSZZSutE_0{stroke-dasharray:597 599;stroke-dashoffset:598;animation:KSZZSutE_draw_0 5400ms ease 0ms infinite,KSZZSutE_fade 5400ms linear 0ms infinite;}.KSZZSutE_1{stroke-dasharray:119 121;stroke-dashoffset:120;animation:KSZZSutE_draw_1 5400ms ease 0ms infinite,KSZZSutE_fade 5400ms linear 0ms infinite;}.KSZZSutE_2{stroke-dasharray:243 245;stroke-dashoffset:244;animation:KSZZSutE_draw_2 5400ms ease 0ms infinite,KSZZSutE_fade 5400ms linear 0ms infinite;}.KSZZSutE_3{stroke-dasharray:150 152;stroke-dashoffset:151;animation:KSZZSutE_draw_3 5400ms ease 0ms infinite,KSZZSutE_fade 5400ms linear 0ms infinite;}.KSZZSutE_4{stroke-dasharray:378 380;stroke-dashoffset:379;animation:KSZZSutE_draw_4 5400ms ease 0ms infinite,KSZZSutE_fade 5400ms linear 0ms infinite;}.KSZZSutE_5{stroke-dasharray:127 129;stroke-dashoffset:128;animation:KSZZSutE_draw_5 5400ms ease 0ms infinite,KSZZSutE_fade 5400ms linear 0ms infinite;}.KSZZSutE_6{stroke-dasharray:107 109;stroke-dashoffset:108;animation:KSZZSutE_draw_6 5400ms ease 0ms infinite,KSZZSutE_fade 5400ms linear 0ms infinite;}.KSZZSutE_7{stroke-dasharray:435 437;stroke-dashoffset:436;animation:KSZZSutE_draw_7 5400ms ease 0ms infinite,KSZZSutE_fade 5400ms linear 0ms infinite;}.KSZZSutE_8{stroke-dasharray:115 117;stroke-dashoffset:116;animation:KSZZSutE_draw_8 5400ms ease 0ms infinite,KSZZSutE_fade 5400ms linear 0ms infinite;}.KSZZSutE_9{stroke-dasharray:37 39;stroke-dashoffset:38;animation:KSZZSutE_draw_9 5400ms ease 0ms infinite,KSZZSutE_fade 5400ms linear 0ms infinite;}@keyframes KSZZSutE_draw{100%{stroke-dashoffset:0;}}@keyframes KSZZSutE_fade{0%{stroke-opacity:1;}92.5925925925926%{stroke-opacity:1;}100%{stroke-opacity:0;}}@keyframes KSZZSutE_draw_0{0%{stroke-dashoffset: 598}92.5925925925926%{ stroke-dashoffset: 0;}100%{ stroke-dashoffset: 0;}}@keyframes KSZZSutE_draw_1{0%{stroke-dashoffset: 120}92.5925925925926%{ stroke-dashoffset: 0;}100%{ stroke-dashoffset: 0;}}@keyframes KSZZSutE_draw_2{0%{stroke-dashoffset: 244}92.5925925925926%{ stroke-dashoffset: 0;}100%{ stroke-dashoffset: 0;}}@keyframes KSZZSutE_draw_3{0%{stroke-dashoffset: 151}92.5925925925926%{ stroke-dashoffset: 0;}100%{ stroke-dashoffset: 0;}}@keyframes KSZZSutE_draw_4{0%{stroke-dashoffset: 379}92.5925925925926%{ stroke-dashoffset: 0;}100%{ stroke-dashoffset: 0;}}@keyframes KSZZSutE_draw_5{0%{stroke-dashoffset: 128}92.5925925925926%{ stroke-dashoffset: 0;}100%{ stroke-dashoffset: 0;}}@keyframes KSZZSutE_draw_6{0%{stroke-dashoffset: 108}92.5925925925926%{ stroke-dashoffset: 0;}100%{ stroke-dashoffset: 0;}}@keyframes KSZZSutE_draw_7{0%{stroke-dashoffset: 436}92.5925925925926%{ stroke-dashoffset: 0;}100%{ stroke-dashoffset: 0;}}@keyframes KSZZSutE_draw_8{0%{stroke-dashoffset: 116}92.5925925925926%{ stroke-dashoffset: 0;}100%{ stroke-dashoffset: 0;}}@keyframes KSZZSutE_draw_9{0%{stroke-dashoffset: 38}92.5925925925926%{ stroke-dashoffset: 0;}100%{ stroke-dashoffset: 0;}}</style></svg>