<svg xmlns="http://www.w3.org/2000/svg" viewBox="0 0 750 500"><g id="freepik--background-simple--inject-4"><path d="M275.43,108.33C375.26,56.91,478-10.34,593.92,17.18a156,156,0,0,1,90.81,60.87C743.88,161,739.07,288,706.93,381.32a172.71,172.71,0,0,1-16.17,34.87c-32.61,52.67-87.58,55.15-140.59,39.93-44.87-12.89-84.62-26.15-131-13-25.67,7.25-50.55,17.23-76.12,24.82-34.82,10.33-70.72,17.36-107,18.07-95.94,1.88-205.52-49.32-214-161.4a185.07,185.07,0,0,1-.34-21.84C23.67,258,37.8,213.17,77,189.94c39.39-23.35,86.12-32.59,128.26-49.15C229.2,131.37,252.45,120.17,275.43,108.33Z" style="fill:#92E3A9"></path><path d="M275.43,108.33C375.26,56.91,478-10.34,593.92,17.18a156,156,0,0,1,90.81,60.87C743.88,161,739.07,288,706.93,381.32a172.71,172.71,0,0,1-16.17,34.87c-32.61,52.67-87.58,55.15-140.59,39.93-44.87-12.89-84.62-26.15-131-13-25.67,7.25-50.55,17.23-76.12,24.82-34.82,10.33-70.72,17.36-107,18.07-95.94,1.88-205.52-49.32-214-161.4a185.07,185.07,0,0,1-.34-21.84C23.67,258,37.8,213.17,77,189.94c39.39-23.35,86.12-32.59,128.26-49.15C229.2,131.37,252.45,120.17,275.43,108.33Z" style="fill:#fff;opacity:0.7000000000000001"></path></g><g id="freepik--Floor--inject-4"><line x1="4.15" y1="482.1" x2="739.73" y2="482.1" style="fill:none;stroke:#263238;stroke-miterlimit:10"></line></g><g id="freepik--Plant--inject-4"><ellipse cx="67.25" cy="328.98" rx="10.15" ry="26.61" style="fill:#92E3A9;stroke:#263238;stroke-miterlimit:10"></ellipse><path d="M35.73,312.57c3.17,10,9.26,17,13.61,15.58s5.29-10.59,2.12-20.58S42.19,290.62,37.85,292,32.55,302.59,35.73,312.57Z" style="fill:#92E3A9;stroke:#263238;stroke-miterlimit:10"></path><path d="M110.17,372.77c10.33-1.75,18.08-6.82,17.32-11.31s-9.75-6.72-20.08-5S89.33,363.3,90.09,367.8,99.84,374.52,110.17,372.77Z" style="fill:#92E3A9;stroke:#263238;stroke-miterlimit:10"></path><path d="M26.17,348.16c8.63,8.56,18.82,12.27,22.77,8.29s.15-14.14-8.48-22.7-18.81-12.26-22.76-8.28S17.55,339.61,26.17,348.16Z" style="fill:#92E3A9;stroke:#263238;stroke-miterlimit:10"></path><path d="M85.61,324.7c-8.34,12.1-10.83,24.86-5.55,28.49s16.31-3.22,24.65-15.33,10.83-24.85,5.55-28.49S94,312.6,85.61,324.7Z" style="fill:#92E3A9;stroke:#263238;stroke-miterlimit:10"></path><line x1="66.54" y1="354.27" x2="65.75" y2="435.22" style="fill:none;stroke:#263238;stroke-linecap:round;stroke-miterlimit:10"></line><line x1="67.48" y1="319.09" x2="66.54" y2="354.27" style="fill:none;stroke:#263238;stroke-linecap:round;stroke-miterlimit:10"></line><line x1="67.42" y1="313.35" x2="67.48" y2="316.04" style="fill:none;stroke:#263238;stroke-linecap:round;stroke-miterlimit:10"></line><path d="M80.1,351.47a102.06,102.06,0,0,0-10,38.39v50.07" style="fill:none;stroke:#263238;stroke-linecap:round;stroke-miterlimit:10"></path><path d="M97.53,324.8A120.16,120.16,0,0,0,80.1,351.47" style="fill:none;stroke:#263238;stroke-linecap:round;stroke-miterlimit:10"></path><path d="M103,319s-1.05,1-2.78,2.8" style="fill:none;stroke:#263238;stroke-linecap:round;stroke-miterlimit:10"></path><path d="M48.31,355.22a120,120,0,0,1,16.44,32.64" style="fill:none;stroke:#263238;stroke-linecap:round;stroke-miterlimit:10"></path><path d="M36.63,341.81a95.55,95.55,0,0,1,11.68,13.41" style="fill:none;stroke:#263238;stroke-linecap:round;stroke-miterlimit:10"></path><path d="M24.17,332.31a52.8,52.8,0,0,1,8.89,6.3" style="fill:none;stroke:#263238;stroke-linecap:round;stroke-miterlimit:10"></path><path d="M48.73,325.67c5.62,17.69,13.17,43.83,16.69,66.52" style="fill:none;stroke:#263238;stroke-linecap:round;stroke-miterlimit:10"></path><path d="M45.31,315.18c1,3,2.16,6.53,3.42,10.49" style="fill:none;stroke:#263238;stroke-linecap:round;stroke-miterlimit:10"></path><path d="M41.8,305s1,2.71,2.56,7.35" style="fill:none;stroke:#263238;stroke-linecap:round;stroke-miterlimit:10"></path><path d="M90.61,365.34c-7,2.67-16.62,10.09-20,19.82" style="fill:none;stroke:#263238;stroke-linecap:round;stroke-miterlimit:10"></path><path d="M103.59,362.71a44.21,44.21,0,0,0-13,2.63" style="fill:none;stroke:#263238;stroke-linecap:round;stroke-miterlimit:10"></path><path d="M112,362.91s-1.25-.17-3.31-.26" style="fill:none;stroke:#263238;stroke-linecap:round;stroke-miterlimit:10"></path><path d="M89.91,411.68c9.49,4.43,18.75,4.67,20.68.54s-4.2-11.07-13.69-15.5-18.75-4.67-20.68-.54S80.42,407.25,89.91,411.68Z" style="fill:#92E3A9;stroke:#263238;stroke-miterlimit:10"></path><path d="M90.21,399.66A44,44,0,0,0,78,394.45a6.09,6.09,0,0,0-6.53.13c-1.28.85-.85,7.27-.85,7.27v33.37" style="fill:none;stroke:#263238;stroke-linecap:round;stroke-miterlimit:10"></path><path d="M97,404.61s-.93-.86-2.58-2.1" style="fill:none;stroke:#263238;stroke-linecap:round;stroke-miterlimit:10"></path><path d="M21.79,372.77C11.47,371,3.71,366,4.47,361.46s9.75-6.72,20.08-5,18.08,6.81,17.32,11.31S32.12,374.52,21.79,372.77Z" style="fill:#92E3A9;stroke:#263238;stroke-miterlimit:10"></path><path d="M41.13,365.26a34,34,0,0,1,3.68,1.62,25.74,25.74,0,0,1,13.75,22.95v44.11" style="fill:none;stroke:#263238;stroke-linecap:round;stroke-miterlimit:10"></path><path d="M27.29,362.65a45.39,45.39,0,0,1,13.84,2.61" style="fill:none;stroke:#263238;stroke-linecap:round;stroke-miterlimit:10"></path><path d="M20,362.91s.83-.11,2.24-.2" style="fill:none;stroke:#263238;stroke-linecap:round;stroke-miterlimit:10"></path><path d="M32.16,403c-9.07,5.24-18.28,6.27-20.55,2.32s3.23-11.39,12.31-16.62,18.27-6.27,20.55-2.32S41.24,397.75,32.16,403Z" style="fill:#92E3A9;stroke:#263238;stroke-miterlimit:10"></path><path d="M30,391.69a45.15,45.15,0,0,1,12.32-6.81S53.54,383,56.11,390.3" style="fill:none;stroke:#263238;stroke-linecap:round;stroke-miterlimit:10"></path><path d="M24.48,396.55s.56-.61,1.6-1.58" style="fill:none;stroke:#263238;stroke-linecap:round;stroke-miterlimit:10"></path><path d="M54.4,390.73s13.26-2.57,13.26,6.41S58.25,413.4,54.4,423.67s-11.13,10.7-15,.43S41.13,395,54.4,390.73Z" style="fill:#92E3A9;stroke:#263238;stroke-miterlimit:10"></path><path d="M63.38,391.15s-11.55,4.71-15,19.69" style="fill:#92E3A9;stroke:#263238;stroke-miterlimit:10"></path><line x1="62.53" y1="410.84" x2="62.53" y2="435.22" style="fill:none;stroke:#263238;stroke-linecap:round;stroke-miterlimit:10"></line><path d="M41.28,482.72a104.19,104.19,0,0,1-4.8-31.22,93.58,93.58,0,0,1,1.92-19.09h54a93.58,93.58,0,0,1,1.92,19.09,104.19,104.19,0,0,1-4.8,31.22Z" style="fill:#263238"></path><path d="M93.83,441.34c.15,1.46.27,3,.36,4.46H36.65c.09-1.51.21-3,.36-4.46Z" style="fill:#7a7a7a"></path><path d="M37.26,464.14c-.18-1.48-.34-3-.45-4.46H94c-.12,1.5-.27,3-.45,4.46Z" style="fill:#7a7a7a"></path><path d="M87.37,451.75a2.33,2.33,0,1,0,2.33-2.25A2.3,2.3,0,0,0,87.37,451.75Z" style="fill:#8c8c8c"></path><path d="M75.73,451.75a2.33,2.33,0,1,0,2.33-2.25A2.29,2.29,0,0,0,75.73,451.75Z" style="fill:#8c8c8c"></path><path d="M64.09,451.75a2.33,2.33,0,1,0,2.33-2.25A2.29,2.29,0,0,0,64.09,451.75Z" style="fill:#8c8c8c"></path><path d="M52.45,451.75a2.33,2.33,0,1,0,2.32-2.25A2.29,2.29,0,0,0,52.45,451.75Z" style="fill:#8c8c8c"></path><path d="M40.8,451.75a2.33,2.33,0,1,0,2.33-2.25A2.3,2.3,0,0,0,40.8,451.75Z" style="fill:#8c8c8c"></path></g><g id="freepik--Device--inject-4"><polygon points="446.92 474.34 312.6 474.34 332.75 400.19 426.77 400.19 446.92 474.34" style="fill:#fff;stroke:#263238;stroke-linecap:round;stroke-linejoin:round"></polygon><polygon points="437.79 440.75 426.77 400.19 332.75 400.19 321.73 440.75 437.79 440.75" style="fill:#263238;stroke:#263238;stroke-linecap:round;stroke-linejoin:round"></polygon><rect x="277.67" y="474.34" width="204.17" height="7.52" style="fill:#fff;stroke:#263238;stroke-linecap:round;stroke-linejoin:round"></rect><rect x="89.39" y="39.33" width="580.73" height="368.64" style="fill:#263238;stroke:#263238;stroke-linecap:round;stroke-linejoin:round"></rect><rect x="108.01" y="53.39" width="543.51" height="340.54" style="fill:#fff;stroke:#263238;stroke-linecap:round;stroke-linejoin:round"></rect><rect x="108.01" y="53.39" width="543.51" height="25.63" style="fill:#92E3A9;stroke:#263238;stroke-linecap:round;stroke-linejoin:round"></rect><rect x="144.9" y="59.57" width="277.21" height="12.97" style="fill:#fff;stroke:#263238;stroke-linecap:round;stroke-linejoin:round"></rect><path d="M634.8,72.53H556.92a6.49,6.49,0,0,1-6.49-6.48h0a6.49,6.49,0,0,1,6.49-6.48H634.8a6.48,6.48,0,0,1,6.48,6.48h0A6.48,6.48,0,0,1,634.8,72.53Z" style="fill:#fff;stroke:#263238;stroke-linecap:round;stroke-linejoin:round"></path><polyline points="632.73 199.74 632.73 201.74 630.73 201.74" style="fill:none;stroke:#263238;stroke-linecap:round;stroke-linejoin:round"></polyline><line x1="626.66" y1="201.74" x2="490.3" y2="201.74" style="fill:none;stroke:#263238;stroke-linecap:round;stroke-linejoin:round;stroke-dasharray:4.070580005645752,4.070580005645752"></line><polyline points="488.26 201.74 486.26 201.74 486.26 199.74" style="fill:none;stroke:#263238;stroke-linecap:round;stroke-linejoin:round"></polyline><line x1="486.26" y1="195.75" x2="486.26" y2="141.91" style="fill:none;stroke:#263238;stroke-linecap:round;stroke-linejoin:round;stroke-dasharray:3.98868989944458,3.98868989944458"></line><polyline points="486.26 139.91 486.26 137.91 488.26 137.91" style="fill:none;stroke:#263238;stroke-linecap:round;stroke-linejoin:round"></polyline><line x1="492.33" y1="137.91" x2="628.7" y2="137.91" style="fill:none;stroke:#263238;stroke-linecap:round;stroke-linejoin:round;stroke-dasharray:4.070580005645752,4.070580005645752"></line><polyline points="630.73 137.91 632.73 137.91 632.73 139.91" style="fill:none;stroke:#263238;stroke-linecap:round;stroke-linejoin:round"></polyline><line x1="632.73" y1="143.9" x2="632.73" y2="197.75" style="fill:none;stroke:#263238;stroke-linecap:round;stroke-linejoin:round;stroke-dasharray:3.98868989944458,3.98868989944458"></line><polyline points="632.73 280.31 632.73 282.31 630.73 282.31" style="fill:none;stroke:#263238;stroke-linecap:round;stroke-linejoin:round"></polyline><line x1="626.66" y1="282.31" x2="490.3" y2="282.31" style="fill:none;stroke:#263238;stroke-linecap:round;stroke-linejoin:round;stroke-dasharray:4.070580005645752,4.070580005645752"></line><polyline points="488.26 282.31 486.26 282.31 486.26 280.31" style="fill:none;stroke:#263238;stroke-linecap:round;stroke-linejoin:round"></polyline><line x1="486.26" y1="276.32" x2="486.26" y2="222.48" style="fill:none;stroke:#263238;stroke-linecap:round;stroke-linejoin:round;stroke-dasharray:3.98868989944458,3.98868989944458"></line><polyline points="486.26 220.48 486.26 218.48 488.26 218.48" style="fill:none;stroke:#263238;stroke-linecap:round;stroke-linejoin:round"></polyline><line x1="492.33" y1="218.48" x2="628.7" y2="218.48" style="fill:none;stroke:#263238;stroke-linecap:round;stroke-linejoin:round;stroke-dasharray:4.070580005645752,4.070580005645752"></line><polyline points="630.73 218.48 632.73 218.48 632.73 220.48" style="fill:none;stroke:#263238;stroke-linecap:round;stroke-linejoin:round"></polyline><line x1="632.73" y1="224.47" x2="632.73" y2="278.32" style="fill:none;stroke:#263238;stroke-linecap:round;stroke-linejoin:round;stroke-dasharray:3.98868989944458,3.98868989944458"></line><polyline points="632.73 360.88 632.73 362.88 630.73 362.88" style="fill:none;stroke:#263238;stroke-linecap:round;stroke-linejoin:round"></polyline><line x1="626.66" y1="362.88" x2="490.3" y2="362.88" style="fill:none;stroke:#263238;stroke-linecap:round;stroke-linejoin:round;stroke-dasharray:4.070580005645752,4.070580005645752"></line><polyline points="488.26 362.88 486.26 362.88 486.26 360.88" style="fill:none;stroke:#263238;stroke-linecap:round;stroke-linejoin:round"></polyline><line x1="486.26" y1="356.9" x2="486.26" y2="303.05" style="fill:none;stroke:#263238;stroke-linecap:round;stroke-linejoin:round;stroke-dasharray:3.98868989944458,3.98868989944458"></line><polyline points="486.26 301.05 486.26 299.05 488.26 299.05" style="fill:none;stroke:#263238;stroke-linecap:round;stroke-linejoin:round"></polyline><line x1="492.33" y1="299.05" x2="628.7" y2="299.05" style="fill:none;stroke:#263238;stroke-linecap:round;stroke-linejoin:round;stroke-dasharray:4.070580005645752,4.070580005645752"></line><polyline points="630.73 299.05 632.73 299.05 632.73 301.05" style="fill:none;stroke:#263238;stroke-linecap:round;stroke-linejoin:round"></polyline><line x1="632.73" y1="305.04" x2="632.73" y2="358.89" style="fill:none;stroke:#263238;stroke-linecap:round;stroke-linejoin:round;stroke-dasharray:3.98868989944458,3.98868989944458"></line><g style="opacity:0.29"><path d="M129.05,98.7h-3.91a1,1,0,0,1,0-1.93h3.91a1,1,0,0,1,0,1.93Zm1,3.49a1,1,0,0,0-1-1h-3.91a1,1,0,0,0,0,1.93h3.91A1,1,0,0,0,130,102.19Zm0,4.46a1,1,0,0,0-1-1h-3.91a1,1,0,0,0,0,1.93h3.91A1,1,0,0,0,130,106.65Zm0,4.46a1,1,0,0,0-1-1h-3.91a1,1,0,0,0,0,1.93h3.91A1,1,0,0,0,130,111.11Zm0,4.47a1,1,0,0,0-1-1h-3.91a1,1,0,0,0,0,1.93h3.91A1,1,0,0,0,130,115.58Zm0,4.46a1,1,0,0,0-1-1h-3.91a1,1,0,0,0,0,1.93h3.91A1,1,0,0,0,130,120Zm0,4.46a1,1,0,0,0-1-1h-3.91a1,1,0,0,0,0,1.93h3.91A1,1,0,0,0,130,124.5Zm0,4.46a1,1,0,0,0-1-1h-3.91a1,1,0,1,0,0,1.92h3.91A1,1,0,0,0,130,129Zm14.6-31.23a1,1,0,0,0-1-1H133.4a1,1,0,0,0,0,1.93h10.25A1,1,0,0,0,144.61,97.73Zm0,4.46a1,1,0,0,0-1-1H133.4a1,1,0,0,0,0,1.93h10.25A1,1,0,0,0,144.61,102.19Zm0,4.46a1,1,0,0,0-1-1H133.4a1,1,0,0,0,0,1.93h10.25A1,1,0,0,0,144.61,106.65Zm0,4.46a1,1,0,0,0-1-1H133.4a1,1,0,0,0,0,1.93h10.25A1,1,0,0,0,144.61,111.11Zm0,4.47a1,1,0,0,0-1-1H133.4a1,1,0,0,0,0,1.93h10.25A1,1,0,0,0,144.61,115.58ZM156.88,120a1,1,0,0,0-1-1H145.67a1,1,0,0,0,0,1.93h10.25A1,1,0,0,0,156.88,120Zm0,4.46a1,1,0,0,0-1-1H145.67a1,1,0,0,0,0,1.93h10.25A1,1,0,0,0,156.88,124.5Zm0,4.46a1,1,0,0,0-1-1H145.67a1,1,0,0,0,0,1.92h10.25A1,1,0,0,0,156.88,129Zm-7.76-31.23A1.12,1.12,0,1,0,148,98.85,1.11,1.11,0,0,0,149.12,97.73Zm3.35,0a1.12,1.12,0,1,0-1.12,1.12A1.12,1.12,0,0,0,152.47,97.73Zm3.34,0a1.12,1.12,0,1,0-1.11,1.12A1.11,1.11,0,0,0,155.81,97.73Zm3.35,0A1.12,1.12,0,1,0,158,98.85,1.12,1.12,0,0,0,159.16,97.73Zm3.34,0a1.12,1.12,0,1,0-1.11,1.12A1.11,1.11,0,0,0,162.5,97.73Zm3.35,0a1.12,1.12,0,1,0-1.12,1.12A1.12,1.12,0,0,0,165.85,97.73Zm-16.73,8.92a1.12,1.12,0,1,0-1.11,1.12A1.11,1.11,0,0,0,149.12,106.65Zm3.35,0a1.12,1.12,0,1,0-1.12,1.12A1.12,1.12,0,0,0,152.47,106.65Zm3.34,0a1.12,1.12,0,1,0-1.11,1.12A1.11,1.11,0,0,0,155.81,106.65Zm3.35,0a1.12,1.12,0,1,0-1.12,1.12A1.12,1.12,0,0,0,159.16,106.65Zm3.34,0a1.12,1.12,0,1,0-1.11,1.12A1.11,1.11,0,0,0,162.5,106.65Zm3.35,0a1.12,1.12,0,1,0-1.12,1.12A1.12,1.12,0,0,0,165.85,106.65Zm-5.3,12.83a1.12,1.12,0,1,0-1.11,1.11A1.12,1.12,0,0,0,160.55,119.48Zm3.35,0a1.12,1.12,0,1,0-1.12,1.11A1.12,1.12,0,0,0,163.9,119.48Zm3.34,0a1.12,1.12,0,1,0-1.11,1.11A1.12,1.12,0,0,0,167.24,119.48Zm3.35,0a1.12,1.12,0,1,0-1.12,1.11A1.12,1.12,0,0,0,170.59,119.48Zm3.34,0a1.12,1.12,0,1,0-1.11,1.11A1.12,1.12,0,0,0,173.93,119.48Zm3.35,0a1.12,1.12,0,1,0-1.12,1.11A1.12,1.12,0,0,0,177.28,119.48Zm-16.73,9.2a1.12,1.12,0,1,0-1.11,1.11A1.12,1.12,0,0,0,160.55,128.68Zm3.35,0a1.12,1.12,0,1,0-1.12,1.11A1.12,1.12,0,0,0,163.9,128.68Zm3.34,0a1.12,1.12,0,1,0-1.11,1.11A1.12,1.12,0,0,0,167.24,128.68Zm3.35,0a1.12,1.12,0,1,0-1.12,1.11A1.12,1.12,0,0,0,170.59,128.68Zm3.34,0a1.12,1.12,0,1,0-1.11,1.11A1.12,1.12,0,0,0,173.93,128.68Zm3.35,0a1.12,1.12,0,1,0-1.12,1.11A1.12,1.12,0,0,0,177.28,128.68Z"></path><path d="M129.05,134.39h-3.91a1,1,0,0,1,0-1.92h3.91a1,1,0,1,1,0,1.92Zm1,3.5a1,1,0,0,0-1-1h-3.91a1,1,0,1,0,0,1.92h3.91A1,1,0,0,0,130,137.89Zm0,4.46a1,1,0,0,0-1-1h-3.91a1,1,0,1,0,0,1.92h3.91A1,1,0,0,0,130,142.35Zm0,4.46a1,1,0,0,0-1-1h-3.91a1,1,0,1,0,0,1.92h3.91A1,1,0,0,0,130,146.81Zm0,4.46a1,1,0,0,0-1-1h-3.91a1,1,0,0,0,0,1.92h3.91A1,1,0,0,0,130,151.27Zm0,4.46a1,1,0,0,0-1-1h-3.91a1,1,0,1,0,0,1.92h3.91A1,1,0,0,0,130,155.73Zm0,4.46a1,1,0,0,0-1-1h-3.91a1,1,0,0,0,0,1.93h3.91A1,1,0,0,0,130,160.19Zm0,4.46a1,1,0,0,0-1-1h-3.91a1,1,0,0,0,0,1.93h3.91A1,1,0,0,0,130,164.65Zm14.6-31.22a1,1,0,0,0-1-1H133.4a1,1,0,1,0,0,1.92h10.25A1,1,0,0,0,144.61,133.43Zm0,4.46a1,1,0,0,0-1-1H133.4a1,1,0,0,0,0,1.92h10.25A1,1,0,0,0,144.61,137.89Zm0,4.46a1,1,0,0,0-1-1H133.4a1,1,0,0,0,0,1.92h10.25A1,1,0,0,0,144.61,142.35Zm0,4.46a1,1,0,0,0-1-1H133.4a1,1,0,0,0,0,1.92h10.25A1,1,0,0,0,144.61,146.81Zm0,4.46a1,1,0,0,0-1-1H133.4a1,1,0,1,0,0,1.92h10.25A1,1,0,0,0,144.61,151.27Zm12.27,4.46a1,1,0,0,0-1-1H145.67a1,1,0,0,0,0,1.92h10.25A1,1,0,0,0,156.88,155.73Zm0,4.46a1,1,0,0,0-1-1H145.67a1,1,0,0,0,0,1.93h10.25A1,1,0,0,0,156.88,160.19Zm0,4.46a1,1,0,0,0-1-1H145.67a1,1,0,0,0,0,1.93h10.25A1,1,0,0,0,156.88,164.65Zm-7.76-31.22a1.12,1.12,0,1,0-1.11,1.11A1.12,1.12,0,0,0,149.12,133.43Zm3.35,0a1.12,1.12,0,1,0-1.12,1.11A1.12,1.12,0,0,0,152.47,133.43Zm3.34,0a1.12,1.12,0,1,0-1.11,1.11A1.12,1.12,0,0,0,155.81,133.43Zm3.35,0a1.12,1.12,0,1,0-1.12,1.11A1.12,1.12,0,0,0,159.16,133.43Zm3.34,0a1.12,1.12,0,1,0-1.11,1.11A1.12,1.12,0,0,0,162.5,133.43Zm3.35,0a1.12,1.12,0,1,0-1.12,1.11A1.12,1.12,0,0,0,165.85,133.43Zm-16.73,8.92a1.12,1.12,0,1,0-1.11,1.11A1.12,1.12,0,0,0,149.12,142.35Zm3.35,0a1.12,1.12,0,1,0-2.23,0,1.12,1.12,0,0,0,2.23,0Zm3.34,0a1.12,1.12,0,1,0-1.11,1.11A1.12,1.12,0,0,0,155.81,142.35Zm3.35,0a1.12,1.12,0,1,0-1.12,1.11A1.12,1.12,0,0,0,159.16,142.35Zm3.34,0a1.12,1.12,0,1,0-1.11,1.11A1.12,1.12,0,0,0,162.5,142.35Zm3.35,0a1.12,1.12,0,1,0-1.12,1.11A1.12,1.12,0,0,0,165.85,142.35Zm-5.3,12.82a1.12,1.12,0,1,0-1.11,1.12A1.11,1.11,0,0,0,160.55,155.17Zm3.35,0a1.12,1.12,0,1,0-1.12,1.12A1.12,1.12,0,0,0,163.9,155.17Zm3.34,0a1.12,1.12,0,1,0-1.11,1.12A1.11,1.11,0,0,0,167.24,155.17Zm3.35,0a1.12,1.12,0,1,0-1.12,1.12A1.12,1.12,0,0,0,170.59,155.17Zm3.34,0a1.12,1.12,0,1,0-1.11,1.12A1.11,1.11,0,0,0,173.93,155.17Zm3.35,0a1.12,1.12,0,1,0-1.12,1.12A1.12,1.12,0,0,0,177.28,155.17Zm-16.73,9.2a1.12,1.12,0,1,0-1.11,1.12A1.11,1.11,0,0,0,160.55,164.37Zm3.35,0a1.12,1.12,0,1,0-1.12,1.12A1.12,1.12,0,0,0,163.9,164.37Zm3.34,0a1.12,1.12,0,1,0-1.11,1.12A1.11,1.11,0,0,0,167.24,164.37Zm3.35,0a1.12,1.12,0,1,0-1.12,1.12A1.12,1.12,0,0,0,170.59,164.37Zm3.34,0a1.12,1.12,0,1,0-1.11,1.12A1.11,1.11,0,0,0,173.93,164.37Zm3.35,0a1.12,1.12,0,1,0-1.12,1.12A1.12,1.12,0,0,0,177.28,164.37Z"></path><path d="M129.05,171h-3.91a1,1,0,0,1,0-1.93h3.91a1,1,0,0,1,0,1.93Zm1,3.5a1,1,0,0,0-1-1h-3.91a1,1,0,0,0,0,1.93h3.91A1,1,0,0,0,130,174.45Zm0,4.46a1,1,0,0,0-1-1h-3.91a1,1,0,0,0,0,1.93h3.91A1,1,0,0,0,130,178.91Zm0,4.46a1,1,0,0,0-1-1h-3.91a1,1,0,0,0,0,1.93h3.91A1,1,0,0,0,130,183.37Zm0,4.46a1,1,0,0,0-1-1h-3.91a1,1,0,0,0,0,1.93h3.91A1,1,0,0,0,130,187.83Zm0,4.46a1,1,0,0,0-1-1h-3.91a1,1,0,1,0,0,1.92h3.91A1,1,0,0,0,130,192.29Zm0,4.46a1,1,0,0,0-1-1h-3.91a1,1,0,1,0,0,1.92h3.91A1,1,0,0,0,130,196.75Zm0,4.46a1,1,0,0,0-1-1h-3.91a1,1,0,0,0,0,1.92h3.91A1,1,0,0,0,130,201.21ZM144.61,170a1,1,0,0,0-1-1H133.4a1,1,0,0,0,0,1.93h10.25A1,1,0,0,0,144.61,170Zm0,4.46a1,1,0,0,0-1-1H133.4a1,1,0,0,0,0,1.93h10.25A1,1,0,0,0,144.61,174.45Zm0,4.46a1,1,0,0,0-1-1H133.4a1,1,0,0,0,0,1.93h10.25A1,1,0,0,0,144.61,178.91Zm0,4.46a1,1,0,0,0-1-1H133.4a1,1,0,0,0,0,1.93h10.25A1,1,0,0,0,144.61,183.37Zm0,4.46a1,1,0,0,0-1-1H133.4a1,1,0,0,0,0,1.93h10.25A1,1,0,0,0,144.61,187.83Zm12.27,4.46a1,1,0,0,0-1-1H145.67a1,1,0,0,0,0,1.92h10.25A1,1,0,0,0,156.88,192.29Zm0,4.46a1,1,0,0,0-1-1H145.67a1,1,0,0,0,0,1.92h10.25A1,1,0,0,0,156.88,196.75Zm0,4.46a1,1,0,0,0-1-1H145.67a1,1,0,1,0,0,1.92h10.25A1,1,0,0,0,156.88,201.21ZM149.12,170A1.12,1.12,0,1,0,148,171.1,1.11,1.11,0,0,0,149.12,170Zm3.35,0a1.12,1.12,0,1,0-1.12,1.12A1.12,1.12,0,0,0,152.47,170Zm3.34,0a1.12,1.12,0,1,0-1.11,1.12A1.11,1.11,0,0,0,155.81,170Zm3.35,0A1.12,1.12,0,1,0,158,171.1,1.12,1.12,0,0,0,159.16,170Zm3.34,0a1.12,1.12,0,1,0-1.11,1.12A1.11,1.11,0,0,0,162.5,170Zm3.35,0a1.12,1.12,0,1,0-1.12,1.12A1.12,1.12,0,0,0,165.85,170Zm-16.73,8.93A1.12,1.12,0,1,0,148,180,1.12,1.12,0,0,0,149.12,178.91Zm3.35,0a1.12,1.12,0,1,0-1.12,1.11A1.12,1.12,0,0,0,152.47,178.91Zm3.34,0A1.12,1.12,0,1,0,154.7,180,1.12,1.12,0,0,0,155.81,178.91Zm3.35,0A1.12,1.12,0,1,0,158,180,1.12,1.12,0,0,0,159.16,178.91Zm3.34,0a1.12,1.12,0,1,0-1.11,1.11A1.12,1.12,0,0,0,162.5,178.91Zm3.35,0a1.12,1.12,0,1,0-1.12,1.11A1.12,1.12,0,0,0,165.85,178.91Zm-5.3,12.82a1.12,1.12,0,1,0-1.11,1.12A1.11,1.11,0,0,0,160.55,191.73Zm3.35,0a1.12,1.12,0,1,0-1.12,1.12A1.12,1.12,0,0,0,163.9,191.73Zm3.34,0a1.12,1.12,0,1,0-1.11,1.12A1.11,1.11,0,0,0,167.24,191.73Zm3.35,0a1.12,1.12,0,1,0-1.12,1.12A1.12,1.12,0,0,0,170.59,191.73Zm3.34,0a1.12,1.12,0,1,0-1.11,1.12A1.11,1.11,0,0,0,173.93,191.73Zm3.35,0a1.12,1.12,0,1,0-1.12,1.12A1.12,1.12,0,0,0,177.28,191.73Zm-16.73,9.2a1.12,1.12,0,1,0-1.11,1.12A1.11,1.11,0,0,0,160.55,200.93Zm3.35,0a1.12,1.12,0,1,0-1.12,1.12A1.12,1.12,0,0,0,163.9,200.93Zm3.34,0a1.12,1.12,0,1,0-1.11,1.12A1.11,1.11,0,0,0,167.24,200.93Zm3.35,0a1.12,1.12,0,1,0-1.12,1.12A1.12,1.12,0,0,0,170.59,200.93Zm3.34,0a1.12,1.12,0,1,0-1.11,1.12A1.11,1.11,0,0,0,173.93,200.93Zm3.35,0a1.12,1.12,0,1,0-1.12,1.12A1.12,1.12,0,0,0,177.28,200.93Z"></path><path d="M189,98.7h-3.9a1,1,0,0,1,0-1.93H189a1,1,0,0,1,0,1.93Zm1,3.49a1,1,0,0,0-1-1h-3.9a1,1,0,0,0,0,1.93H189A1,1,0,0,0,189.93,102.19Zm0,4.46a1,1,0,0,0-1-1h-3.9a1,1,0,0,0,0,1.93H189A1,1,0,0,0,189.93,106.65Zm0,4.46a1,1,0,0,0-1-1h-3.9a1,1,0,0,0,0,1.93H189A1,1,0,0,0,189.93,111.11Zm0,4.47a1,1,0,0,0-1-1h-3.9a1,1,0,0,0,0,1.93H189A1,1,0,0,0,189.93,115.58Zm0,4.46a1,1,0,0,0-1-1h-3.9a1,1,0,0,0,0,1.93H189A1,1,0,0,0,189.93,120Zm0,4.46a1,1,0,0,0-1-1h-3.9a1,1,0,0,0,0,1.93H189A1,1,0,0,0,189.93,124.5Zm0,4.46a1,1,0,0,0-1-1h-3.9a1,1,0,1,0,0,1.92H189A1,1,0,0,0,189.93,129Zm14.61-31.23a1,1,0,0,0-1-1H193.33a1,1,0,0,0,0,1.93h10.24A1,1,0,0,0,204.54,97.73Zm0,4.46a1,1,0,0,0-1-1H193.33a1,1,0,0,0,0,1.93h10.24A1,1,0,0,0,204.54,102.19Zm0,4.46a1,1,0,0,0-1-1H193.33a1,1,0,0,0,0,1.93h10.24A1,1,0,0,0,204.54,106.65Zm0,4.46a1,1,0,0,0-1-1H193.33a1,1,0,0,0,0,1.93h10.24A1,1,0,0,0,204.54,111.11Zm0,4.47a1,1,0,0,0-1-1H193.33a1,1,0,0,0,0,1.93h10.24A1,1,0,0,0,204.54,115.58ZM216.8,120a1,1,0,0,0-1-1H205.6a1,1,0,1,0,0,1.93h10.24A1,1,0,0,0,216.8,120Zm0,4.46a1,1,0,0,0-1-1H205.6a1,1,0,1,0,0,1.93h10.24A1,1,0,0,0,216.8,124.5Zm0,4.46a1,1,0,0,0-1-1H205.6a1,1,0,1,0,0,1.92h10.24A1,1,0,0,0,216.8,129Zm-7.75-31.23a1.12,1.12,0,1,0-1.12,1.12A1.12,1.12,0,0,0,209.05,97.73Zm3.34,0a1.12,1.12,0,1,0-1.11,1.12A1.11,1.11,0,0,0,212.39,97.73Zm3.35,0a1.12,1.12,0,1,0-1.12,1.12A1.12,1.12,0,0,0,215.74,97.73Zm3.34,0A1.12,1.12,0,1,0,218,98.85,1.11,1.11,0,0,0,219.08,97.73Zm3.35,0a1.12,1.12,0,1,0-1.12,1.12A1.12,1.12,0,0,0,222.43,97.73Zm3.34,0a1.12,1.12,0,1,0-1.11,1.12A1.11,1.11,0,0,0,225.77,97.73Zm-16.72,8.92a1.12,1.12,0,1,0-1.12,1.12A1.12,1.12,0,0,0,209.05,106.65Zm3.34,0a1.12,1.12,0,1,0-1.11,1.12A1.11,1.11,0,0,0,212.39,106.65Zm3.35,0a1.12,1.12,0,1,0-1.12,1.12A1.12,1.12,0,0,0,215.74,106.65Zm3.34,0a1.12,1.12,0,1,0-1.11,1.12A1.11,1.11,0,0,0,219.08,106.65Zm3.35,0a1.12,1.12,0,1,0-1.12,1.12A1.12,1.12,0,0,0,222.43,106.65Zm3.34,0a1.12,1.12,0,1,0-1.11,1.12A1.11,1.11,0,0,0,225.77,106.65Zm-5.29,12.83a1.12,1.12,0,1,0-2.23,0,1.12,1.12,0,0,0,2.23,0Zm3.34,0a1.12,1.12,0,1,0-1.11,1.11A1.12,1.12,0,0,0,223.82,119.48Zm3.35,0a1.12,1.12,0,1,0-1.12,1.11A1.12,1.12,0,0,0,227.17,119.48Zm3.34,0a1.12,1.12,0,1,0-1.11,1.11A1.12,1.12,0,0,0,230.51,119.48Zm3.35,0a1.12,1.12,0,1,0-1.12,1.11A1.12,1.12,0,0,0,233.86,119.48Zm3.34,0a1.12,1.12,0,1,0-1.11,1.11A1.12,1.12,0,0,0,237.2,119.48Zm-16.72,9.2a1.12,1.12,0,1,0-2.23,0,1.12,1.12,0,0,0,2.23,0Zm3.34,0a1.12,1.12,0,1,0-1.11,1.11A1.12,1.12,0,0,0,223.82,128.68Zm3.35,0a1.12,1.12,0,1,0-1.12,1.11A1.12,1.12,0,0,0,227.17,128.68Zm3.34,0a1.12,1.12,0,1,0-1.11,1.11A1.12,1.12,0,0,0,230.51,128.68Zm3.35,0a1.12,1.12,0,1,0-1.12,1.11A1.12,1.12,0,0,0,233.86,128.68Zm3.34,0a1.12,1.12,0,1,0-1.11,1.11A1.12,1.12,0,0,0,237.2,128.68Z"></path><path d="M189,135.25h-3.9a1,1,0,0,1,0-1.92H189a1,1,0,0,1,0,1.92Zm1,3.5a1,1,0,0,0-1-1h-3.9a1,1,0,0,0,0,1.92H189A1,1,0,0,0,189.93,138.75Zm0,4.46a1,1,0,0,0-1-1h-3.9a1,1,0,1,0,0,1.92H189A1,1,0,0,0,189.93,143.21Zm0,4.46a1,1,0,0,0-1-1h-3.9a1,1,0,0,0,0,1.92H189A1,1,0,0,0,189.93,147.67Zm0,4.46a1,1,0,0,0-1-1h-3.9a1,1,0,0,0,0,1.93H189A1,1,0,0,0,189.93,152.13Zm0,4.46a1,1,0,0,0-1-1h-3.9a1,1,0,0,0,0,1.93H189A1,1,0,0,0,189.93,156.59Zm0,4.46a1,1,0,0,0-1-1h-3.9a1,1,0,0,0,0,1.93H189A1,1,0,0,0,189.93,161.05Zm0,4.47a1,1,0,0,0-1-1h-3.9a1,1,0,0,0,0,1.93H189A1,1,0,0,0,189.93,165.52Zm14.61-31.23a1,1,0,0,0-1-1H193.33a1,1,0,0,0,0,1.92h10.24A1,1,0,0,0,204.54,134.29Zm0,4.46a1,1,0,0,0-1-1H193.33a1,1,0,0,0,0,1.92h10.24A1,1,0,0,0,204.54,138.75Zm0,4.46a1,1,0,0,0-1-1H193.33a1,1,0,1,0,0,1.92h10.24A1,1,0,0,0,204.54,143.21Zm0,4.46a1,1,0,0,0-1-1H193.33a1,1,0,0,0,0,1.92h10.24A1,1,0,0,0,204.54,147.67Zm0,4.46a1,1,0,0,0-1-1H193.33a1,1,0,0,0,0,1.93h10.24A1,1,0,0,0,204.54,152.13Zm12.26,4.46a1,1,0,0,0-1-1H205.6a1,1,0,1,0,0,1.93h10.24A1,1,0,0,0,216.8,156.59Zm0,4.46a1,1,0,0,0-1-1H205.6a1,1,0,1,0,0,1.93h10.24A1,1,0,0,0,216.8,161.05Zm0,4.47a1,1,0,0,0-1-1H205.6a1,1,0,1,0,0,1.93h10.24A1,1,0,0,0,216.8,165.52Zm-7.75-31.23a1.12,1.12,0,1,0-2.23,0,1.12,1.12,0,0,0,2.23,0Zm3.34,0a1.12,1.12,0,1,0-1.11,1.11A1.12,1.12,0,0,0,212.39,134.29Zm3.35,0a1.12,1.12,0,1,0-1.12,1.11A1.12,1.12,0,0,0,215.74,134.29Zm3.34,0A1.12,1.12,0,1,0,218,135.4,1.12,1.12,0,0,0,219.08,134.29Zm3.35,0a1.12,1.12,0,1,0-1.12,1.11A1.12,1.12,0,0,0,222.43,134.29Zm3.34,0a1.12,1.12,0,1,0-1.11,1.11A1.12,1.12,0,0,0,225.77,134.29Zm-16.72,8.92a1.12,1.12,0,1,0-1.12,1.12A1.12,1.12,0,0,0,209.05,143.21Zm3.34,0a1.12,1.12,0,1,0-1.11,1.12A1.11,1.11,0,0,0,212.39,143.21Zm3.35,0a1.12,1.12,0,1,0-1.12,1.12A1.12,1.12,0,0,0,215.74,143.21Zm3.34,0a1.12,1.12,0,1,0-1.11,1.12A1.11,1.11,0,0,0,219.08,143.21Zm3.35,0a1.12,1.12,0,1,0-1.12,1.12A1.12,1.12,0,0,0,222.43,143.21Zm3.34,0a1.12,1.12,0,1,0-1.11,1.12A1.11,1.11,0,0,0,225.77,143.21ZM220.48,156a1.12,1.12,0,1,0-1.12,1.11A1.12,1.12,0,0,0,220.48,156Zm3.34,0a1.12,1.12,0,1,0-1.11,1.11A1.12,1.12,0,0,0,223.82,156Zm3.35,0a1.12,1.12,0,1,0-1.12,1.11A1.12,1.12,0,0,0,227.17,156Zm3.34,0a1.12,1.12,0,1,0-1.11,1.11A1.12,1.12,0,0,0,230.51,156Zm3.35,0a1.12,1.12,0,1,0-1.12,1.11A1.12,1.12,0,0,0,233.86,156Zm3.34,0a1.12,1.12,0,1,0-1.11,1.11A1.12,1.12,0,0,0,237.2,156Zm-16.72,9.2a1.12,1.12,0,1,0-1.12,1.11A1.12,1.12,0,0,0,220.48,165.24Zm3.34,0a1.12,1.12,0,1,0-1.11,1.11A1.12,1.12,0,0,0,223.82,165.24Zm3.35,0a1.12,1.12,0,1,0-1.12,1.11A1.12,1.12,0,0,0,227.17,165.24Zm3.34,0a1.12,1.12,0,1,0-1.11,1.11A1.12,1.12,0,0,0,230.51,165.24Zm3.35,0a1.12,1.12,0,1,0-1.12,1.11A1.12,1.12,0,0,0,233.86,165.24Zm3.34,0a1.12,1.12,0,1,0-1.11,1.11A1.12,1.12,0,0,0,237.2,165.24Z"></path></g><g style="opacity:0.29"><path d="M129.05,277.63h-3.91a1,1,0,0,1,0-1.93h3.91a1,1,0,0,1,0,1.93Zm1,3.49a1,1,0,0,0-1-1h-3.91a1,1,0,0,0,0,1.93h3.91A1,1,0,0,0,130,281.12Zm0,4.46a1,1,0,0,0-1-1h-3.91a1,1,0,0,0,0,1.93h3.91A1,1,0,0,0,130,285.58Zm0,4.46a1,1,0,0,0-1-1h-3.91a1,1,0,0,0,0,1.93h3.91A1,1,0,0,0,130,290Zm0,4.47a1,1,0,0,0-1-1h-3.91a1,1,0,0,0,0,1.93h3.91A1,1,0,0,0,130,294.51Zm0,4.46a1,1,0,0,0-1-1h-3.91a1,1,0,0,0,0,1.93h3.91A1,1,0,0,0,130,299Zm0,4.46a1,1,0,0,0-1-1h-3.91a1,1,0,0,0,0,1.93h3.91A1,1,0,0,0,130,303.43Zm0,4.46a1,1,0,0,0-1-1h-3.91a1,1,0,1,0,0,1.92h3.91A1,1,0,0,0,130,307.89Zm14.6-31.23a1,1,0,0,0-1-1H133.4a1,1,0,0,0,0,1.93h10.25A1,1,0,0,0,144.61,276.66Zm0,4.46a1,1,0,0,0-1-1H133.4a1,1,0,0,0,0,1.93h10.25A1,1,0,0,0,144.61,281.12Zm0,4.46a1,1,0,0,0-1-1H133.4a1,1,0,0,0,0,1.93h10.25A1,1,0,0,0,144.61,285.58Zm0,4.46a1,1,0,0,0-1-1H133.4a1,1,0,0,0,0,1.93h10.25A1,1,0,0,0,144.61,290Zm0,4.47a1,1,0,0,0-1-1H133.4a1,1,0,0,0,0,1.93h10.25A1,1,0,0,0,144.61,294.51ZM156.88,299a1,1,0,0,0-1-1H145.67a1,1,0,0,0,0,1.93h10.25A1,1,0,0,0,156.88,299Zm0,4.46a1,1,0,0,0-1-1H145.67a1,1,0,0,0,0,1.93h10.25A1,1,0,0,0,156.88,303.43Zm0,4.46a1,1,0,0,0-1-1H145.67a1,1,0,1,0,0,1.92h10.25A1,1,0,0,0,156.88,307.89Zm-7.76-31.23a1.12,1.12,0,1,0-1.11,1.12A1.11,1.11,0,0,0,149.12,276.66Zm3.35,0a1.12,1.12,0,1,0-1.12,1.12A1.12,1.12,0,0,0,152.47,276.66Zm3.34,0a1.12,1.12,0,1,0-1.11,1.12A1.11,1.11,0,0,0,155.81,276.66Zm3.35,0a1.12,1.12,0,1,0-1.12,1.12A1.12,1.12,0,0,0,159.16,276.66Zm3.34,0a1.12,1.12,0,1,0-1.11,1.12A1.11,1.11,0,0,0,162.5,276.66Zm3.35,0a1.12,1.12,0,1,0-1.12,1.12A1.12,1.12,0,0,0,165.85,276.66Zm-16.73,8.92A1.12,1.12,0,1,0,148,286.7,1.11,1.11,0,0,0,149.12,285.58Zm3.35,0a1.12,1.12,0,1,0-1.12,1.12A1.12,1.12,0,0,0,152.47,285.58Zm3.34,0a1.12,1.12,0,1,0-1.11,1.12A1.11,1.11,0,0,0,155.81,285.58Zm3.35,0A1.12,1.12,0,1,0,158,286.7,1.12,1.12,0,0,0,159.16,285.58Zm3.34,0a1.12,1.12,0,1,0-1.11,1.12A1.11,1.11,0,0,0,162.5,285.58Zm3.35,0a1.12,1.12,0,1,0-1.12,1.12A1.12,1.12,0,0,0,165.85,285.58Zm-5.3,12.83a1.12,1.12,0,1,0-1.11,1.11A1.12,1.12,0,0,0,160.55,298.41Zm3.35,0a1.12,1.12,0,1,0-1.12,1.11A1.12,1.12,0,0,0,163.9,298.41Zm3.34,0a1.12,1.12,0,1,0-1.11,1.11A1.12,1.12,0,0,0,167.24,298.41Zm3.35,0a1.12,1.12,0,1,0-1.12,1.11A1.12,1.12,0,0,0,170.59,298.41Zm3.34,0a1.12,1.12,0,1,0-1.11,1.11A1.12,1.12,0,0,0,173.93,298.41Zm3.35,0a1.12,1.12,0,1,0-1.12,1.11A1.12,1.12,0,0,0,177.28,298.41Zm-16.73,9.2a1.12,1.12,0,1,0-1.11,1.11A1.12,1.12,0,0,0,160.55,307.61Zm3.35,0a1.12,1.12,0,1,0-1.12,1.11A1.12,1.12,0,0,0,163.9,307.61Zm3.34,0a1.12,1.12,0,1,0-1.11,1.11A1.12,1.12,0,0,0,167.24,307.61Zm3.35,0a1.12,1.12,0,1,0-1.12,1.11A1.12,1.12,0,0,0,170.59,307.61Zm3.34,0a1.12,1.12,0,1,0-1.11,1.11A1.12,1.12,0,0,0,173.93,307.61Zm3.35,0a1.12,1.12,0,1,0-1.12,1.11A1.12,1.12,0,0,0,177.28,307.61Z"></path><path d="M129.05,313.32h-3.91a1,1,0,0,1,0-1.92h3.91a1,1,0,0,1,0,1.92Zm1,3.5a1,1,0,0,0-1-1h-3.91a1,1,0,0,0,0,1.92h3.91A1,1,0,0,0,130,316.82Zm0,4.46a1,1,0,0,0-1-1h-3.91a1,1,0,1,0,0,1.92h3.91A1,1,0,0,0,130,321.28Zm0,4.46a1,1,0,0,0-1-1h-3.91a1,1,0,0,0,0,1.92h3.91A1,1,0,0,0,130,325.74Zm0,4.46a1,1,0,0,0-1-1h-3.91a1,1,0,1,0,0,1.92h3.91A1,1,0,0,0,130,330.2Zm0,4.46a1,1,0,0,0-1-1h-3.91a1,1,0,0,0,0,1.92h3.91A1,1,0,0,0,130,334.66Zm0,4.46a1,1,0,0,0-1-1h-3.91a1,1,0,0,0,0,1.92h3.91A1,1,0,0,0,130,339.12Zm0,4.46a1,1,0,0,0-1-1h-3.91a1,1,0,0,0,0,1.93h3.91A1,1,0,0,0,130,343.58Zm14.6-31.22a1,1,0,0,0-1-1H133.4a1,1,0,1,0,0,1.92h10.25A1,1,0,0,0,144.61,312.36Zm0,4.46a1,1,0,0,0-1-1H133.4a1,1,0,1,0,0,1.92h10.25A1,1,0,0,0,144.61,316.82Zm0,4.46a1,1,0,0,0-1-1H133.4a1,1,0,0,0,0,1.92h10.25A1,1,0,0,0,144.61,321.28Zm0,4.46a1,1,0,0,0-1-1H133.4a1,1,0,1,0,0,1.92h10.25A1,1,0,0,0,144.61,325.74Zm0,4.46a1,1,0,0,0-1-1H133.4a1,1,0,0,0,0,1.92h10.25A1,1,0,0,0,144.61,330.2Zm12.27,4.46a1,1,0,0,0-1-1H145.67a1,1,0,1,0,0,1.92h10.25A1,1,0,0,0,156.88,334.66Zm0,4.46a1,1,0,0,0-1-1H145.67a1,1,0,0,0,0,1.92h10.25A1,1,0,0,0,156.88,339.12Zm0,4.46a1,1,0,0,0-1-1H145.67a1,1,0,0,0,0,1.93h10.25A1,1,0,0,0,156.88,343.58Zm-7.76-31.22a1.12,1.12,0,1,0-1.11,1.11A1.12,1.12,0,0,0,149.12,312.36Zm3.35,0a1.12,1.12,0,1,0-1.12,1.11A1.12,1.12,0,0,0,152.47,312.36Zm3.34,0a1.12,1.12,0,1,0-1.11,1.11A1.12,1.12,0,0,0,155.81,312.36Zm3.35,0a1.12,1.12,0,1,0-1.12,1.11A1.12,1.12,0,0,0,159.16,312.36Zm3.34,0a1.12,1.12,0,1,0-1.11,1.11A1.12,1.12,0,0,0,162.5,312.36Zm3.35,0a1.12,1.12,0,1,0-1.12,1.11A1.12,1.12,0,0,0,165.85,312.36Zm-16.73,8.92a1.12,1.12,0,1,0-1.11,1.11A1.12,1.12,0,0,0,149.12,321.28Zm3.35,0a1.12,1.12,0,1,0-1.12,1.11A1.12,1.12,0,0,0,152.47,321.28Zm3.34,0a1.12,1.12,0,1,0-1.11,1.11A1.12,1.12,0,0,0,155.81,321.28Zm3.35,0a1.12,1.12,0,1,0-1.12,1.11A1.12,1.12,0,0,0,159.16,321.28Zm3.34,0a1.12,1.12,0,1,0-1.11,1.11A1.12,1.12,0,0,0,162.5,321.28Zm3.35,0a1.12,1.12,0,1,0-1.12,1.11A1.12,1.12,0,0,0,165.85,321.28Zm-5.3,12.82a1.12,1.12,0,1,0-1.11,1.12A1.11,1.11,0,0,0,160.55,334.1Zm3.35,0a1.12,1.12,0,1,0-1.12,1.12A1.12,1.12,0,0,0,163.9,334.1Zm3.34,0a1.12,1.12,0,1,0-1.11,1.12A1.11,1.11,0,0,0,167.24,334.1Zm3.35,0a1.12,1.12,0,1,0-1.12,1.12A1.12,1.12,0,0,0,170.59,334.1Zm3.34,0a1.12,1.12,0,1,0-1.11,1.12A1.11,1.11,0,0,0,173.93,334.1Zm3.35,0a1.12,1.12,0,1,0-1.12,1.12A1.12,1.12,0,0,0,177.28,334.1Zm-16.73,9.2a1.12,1.12,0,1,0-1.11,1.12A1.11,1.11,0,0,0,160.55,343.3Zm3.35,0a1.12,1.12,0,1,0-1.12,1.12A1.12,1.12,0,0,0,163.9,343.3Zm3.34,0a1.12,1.12,0,1,0-1.11,1.12A1.11,1.11,0,0,0,167.24,343.3Zm3.35,0a1.12,1.12,0,1,0-1.12,1.12A1.12,1.12,0,0,0,170.59,343.3Zm3.34,0a1.12,1.12,0,1,0-1.11,1.12A1.11,1.11,0,0,0,173.93,343.3Zm3.35,0a1.12,1.12,0,1,0-1.12,1.12A1.12,1.12,0,0,0,177.28,343.3Z"></path><path d="M129.05,349.88h-3.91a1,1,0,0,1,0-1.93h3.91a1,1,0,0,1,0,1.93Zm1,3.5a1,1,0,0,0-1-1h-3.91a1,1,0,0,0,0,1.93h3.91A1,1,0,0,0,130,353.38Zm0,4.46a1,1,0,0,0-1-1h-3.91a1,1,0,0,0,0,1.93h3.91A1,1,0,0,0,130,357.84Zm0,4.46a1,1,0,0,0-1-1h-3.91a1,1,0,0,0,0,1.93h3.91A1,1,0,0,0,130,362.3Zm0,4.46a1,1,0,0,0-1-1h-3.91a1,1,0,0,0,0,1.93h3.91A1,1,0,0,0,130,366.76Zm0,4.46a1,1,0,0,0-1-1h-3.91a1,1,0,0,0,0,1.92h3.91A1,1,0,0,0,130,371.22Zm0,4.46a1,1,0,0,0-1-1h-3.91a1,1,0,0,0,0,1.92h3.91A1,1,0,0,0,130,375.68Zm0,4.46a1,1,0,0,0-1-1h-3.91a1,1,0,1,0,0,1.92h3.91A1,1,0,0,0,130,380.14Zm14.6-31.23a1,1,0,0,0-1-1H133.4a1,1,0,0,0,0,1.93h10.25A1,1,0,0,0,144.61,348.91Zm0,4.47a1,1,0,0,0-1-1H133.4a1,1,0,0,0,0,1.93h10.25A1,1,0,0,0,144.61,353.38Zm0,4.46a1,1,0,0,0-1-1H133.4a1,1,0,0,0,0,1.93h10.25A1,1,0,0,0,144.61,357.84Zm0,4.46a1,1,0,0,0-1-1H133.4a1,1,0,0,0,0,1.93h10.25A1,1,0,0,0,144.61,362.3Zm0,4.46a1,1,0,0,0-1-1H133.4a1,1,0,0,0,0,1.93h10.25A1,1,0,0,0,144.61,366.76Zm12.27,4.46a1,1,0,0,0-1-1H145.67a1,1,0,1,0,0,1.92h10.25A1,1,0,0,0,156.88,371.22Zm0,4.46a1,1,0,0,0-1-1H145.67a1,1,0,1,0,0,1.92h10.25A1,1,0,0,0,156.88,375.68Zm0,4.46a1,1,0,0,0-1-1H145.67a1,1,0,0,0,0,1.92h10.25A1,1,0,0,0,156.88,380.14Zm-7.76-31.23A1.12,1.12,0,1,0,148,350,1.11,1.11,0,0,0,149.12,348.91Zm3.35,0a1.12,1.12,0,1,0-1.12,1.12A1.12,1.12,0,0,0,152.47,348.91Zm3.34,0A1.12,1.12,0,1,0,154.7,350,1.11,1.11,0,0,0,155.81,348.91Zm3.35,0A1.12,1.12,0,1,0,158,350,1.12,1.12,0,0,0,159.16,348.91Zm3.34,0a1.12,1.12,0,1,0-1.11,1.12A1.11,1.11,0,0,0,162.5,348.91Zm3.35,0a1.12,1.12,0,1,0-1.12,1.12A1.12,1.12,0,0,0,165.85,348.91Zm-16.73,8.93A1.12,1.12,0,1,0,148,359,1.12,1.12,0,0,0,149.12,357.84Zm3.35,0a1.12,1.12,0,1,0-1.12,1.11A1.12,1.12,0,0,0,152.47,357.84Zm3.34,0A1.12,1.12,0,1,0,154.7,359,1.12,1.12,0,0,0,155.81,357.84Zm3.35,0A1.12,1.12,0,1,0,158,359,1.12,1.12,0,0,0,159.16,357.84Zm3.34,0a1.12,1.12,0,1,0-1.11,1.11A1.12,1.12,0,0,0,162.5,357.84Zm3.35,0a1.12,1.12,0,1,0-1.12,1.11A1.12,1.12,0,0,0,165.85,357.84Zm-5.3,12.82a1.12,1.12,0,1,0-1.11,1.12A1.11,1.11,0,0,0,160.55,370.66Zm3.35,0a1.12,1.12,0,1,0-1.12,1.12A1.12,1.12,0,0,0,163.9,370.66Zm3.34,0a1.12,1.12,0,1,0-1.11,1.12A1.11,1.11,0,0,0,167.24,370.66Zm3.35,0a1.12,1.12,0,1,0-1.12,1.12A1.12,1.12,0,0,0,170.59,370.66Zm3.34,0a1.12,1.12,0,1,0-1.11,1.12A1.11,1.11,0,0,0,173.93,370.66Zm3.35,0a1.12,1.12,0,1,0-1.12,1.12A1.12,1.12,0,0,0,177.28,370.66Zm-16.73,9.2a1.12,1.12,0,1,0-1.11,1.12A1.11,1.11,0,0,0,160.55,379.86Zm3.35,0a1.12,1.12,0,1,0-1.12,1.12A1.12,1.12,0,0,0,163.9,379.86Zm3.34,0a1.12,1.12,0,1,0-1.11,1.12A1.11,1.11,0,0,0,167.24,379.86Zm3.35,0a1.12,1.12,0,1,0-1.12,1.12A1.12,1.12,0,0,0,170.59,379.86Zm3.34,0a1.12,1.12,0,1,0-1.11,1.12A1.11,1.11,0,0,0,173.93,379.86Zm3.35,0a1.12,1.12,0,1,0-1.12,1.12A1.12,1.12,0,0,0,177.28,379.86Z"></path><path d="M189,277.63h-3.9a1,1,0,0,1,0-1.93H189a1,1,0,0,1,0,1.93Zm1,3.49a1,1,0,0,0-1-1h-3.9a1,1,0,0,0,0,1.93H189A1,1,0,0,0,189.93,281.12Zm0,4.46a1,1,0,0,0-1-1h-3.9a1,1,0,0,0,0,1.93H189A1,1,0,0,0,189.93,285.58Zm0,4.46a1,1,0,0,0-1-1h-3.9a1,1,0,0,0,0,1.93H189A1,1,0,0,0,189.93,290Zm0,4.47a1,1,0,0,0-1-1h-3.9a1,1,0,0,0,0,1.93H189A1,1,0,0,0,189.93,294.51Zm0,4.46a1,1,0,0,0-1-1h-3.9a1,1,0,0,0,0,1.93H189A1,1,0,0,0,189.93,299Zm0,4.46a1,1,0,0,0-1-1h-3.9a1,1,0,0,0,0,1.93H189A1,1,0,0,0,189.93,303.43Zm0,4.46a1,1,0,0,0-1-1h-3.9a1,1,0,1,0,0,1.92H189A1,1,0,0,0,189.93,307.89Zm14.61-31.23a1,1,0,0,0-1-1H193.33a1,1,0,0,0,0,1.93h10.24A1,1,0,0,0,204.54,276.66Zm0,4.46a1,1,0,0,0-1-1H193.33a1,1,0,0,0,0,1.93h10.24A1,1,0,0,0,204.54,281.12Zm0,4.46a1,1,0,0,0-1-1H193.33a1,1,0,0,0,0,1.93h10.24A1,1,0,0,0,204.54,285.58Zm0,4.46a1,1,0,0,0-1-1H193.33a1,1,0,0,0,0,1.93h10.24A1,1,0,0,0,204.54,290Zm0,4.47a1,1,0,0,0-1-1H193.33a1,1,0,0,0,0,1.93h10.24A1,1,0,0,0,204.54,294.51ZM216.8,299a1,1,0,0,0-1-1H205.6a1,1,0,1,0,0,1.93h10.24A1,1,0,0,0,216.8,299Zm0,4.46a1,1,0,0,0-1-1H205.6a1,1,0,1,0,0,1.93h10.24A1,1,0,0,0,216.8,303.43Zm0,4.46a1,1,0,0,0-1-1H205.6a1,1,0,1,0,0,1.92h10.24A1,1,0,0,0,216.8,307.89Zm-7.75-31.23a1.12,1.12,0,1,0-1.12,1.12A1.12,1.12,0,0,0,209.05,276.66Zm3.34,0a1.12,1.12,0,1,0-1.11,1.12A1.11,1.11,0,0,0,212.39,276.66Zm3.35,0a1.12,1.12,0,1,0-1.12,1.12A1.12,1.12,0,0,0,215.74,276.66Zm3.34,0a1.12,1.12,0,1,0-1.11,1.12A1.11,1.11,0,0,0,219.08,276.66Zm3.35,0a1.12,1.12,0,1,0-1.12,1.12A1.12,1.12,0,0,0,222.43,276.66Zm3.34,0a1.12,1.12,0,1,0-1.11,1.12A1.11,1.11,0,0,0,225.77,276.66Zm-16.72,8.92a1.12,1.12,0,1,0-1.12,1.12A1.12,1.12,0,0,0,209.05,285.58Zm3.34,0a1.12,1.12,0,1,0-1.11,1.12A1.11,1.11,0,0,0,212.39,285.58Zm3.35,0a1.12,1.12,0,1,0-1.12,1.12A1.12,1.12,0,0,0,215.74,285.58Zm3.34,0A1.12,1.12,0,1,0,218,286.7,1.11,1.11,0,0,0,219.08,285.58Zm3.35,0a1.12,1.12,0,1,0-1.12,1.12A1.12,1.12,0,0,0,222.43,285.58Zm3.34,0a1.12,1.12,0,1,0-1.11,1.12A1.11,1.11,0,0,0,225.77,285.58Zm-5.29,12.83a1.12,1.12,0,1,0-1.12,1.11A1.12,1.12,0,0,0,220.48,298.41Zm3.34,0a1.12,1.12,0,1,0-1.11,1.11A1.12,1.12,0,0,0,223.82,298.41Zm3.35,0a1.12,1.12,0,1,0-1.12,1.11A1.12,1.12,0,0,0,227.17,298.41Zm3.34,0a1.12,1.12,0,1,0-1.11,1.11A1.12,1.12,0,0,0,230.51,298.41Zm3.35,0a1.12,1.12,0,1,0-1.12,1.11A1.12,1.12,0,0,0,233.86,298.41Zm3.34,0a1.12,1.12,0,1,0-1.11,1.11A1.12,1.12,0,0,0,237.2,298.41Zm-16.72,9.2a1.12,1.12,0,1,0-1.12,1.11A1.12,1.12,0,0,0,220.48,307.61Zm3.34,0a1.12,1.12,0,1,0-1.11,1.11A1.12,1.12,0,0,0,223.82,307.61Zm3.35,0a1.12,1.12,0,1,0-1.12,1.11A1.12,1.12,0,0,0,227.17,307.61Zm3.34,0a1.12,1.12,0,1,0-1.11,1.11A1.12,1.12,0,0,0,230.51,307.61Zm3.35,0a1.12,1.12,0,1,0-1.12,1.11A1.12,1.12,0,0,0,233.86,307.61Zm3.34,0a1.12,1.12,0,1,0-1.11,1.11A1.12,1.12,0,0,0,237.2,307.61Z"></path><path d="M189,314.18h-3.9a1,1,0,1,1,0-1.92H189a1,1,0,1,1,0,1.92Zm1,3.5a1,1,0,0,0-1-1h-3.9a1,1,0,0,0,0,1.92H189A1,1,0,0,0,189.93,317.68Zm0,4.46a1,1,0,0,0-1-1h-3.9a1,1,0,1,0,0,1.92H189A1,1,0,0,0,189.93,322.14Zm0,4.46a1,1,0,0,0-1-1h-3.9a1,1,0,1,0,0,1.92H189A1,1,0,0,0,189.93,326.6Zm0,4.46a1,1,0,0,0-1-1h-3.9a1,1,0,0,0,0,1.92H189A1,1,0,0,0,189.93,331.06Zm0,4.46a1,1,0,0,0-1-1h-3.9a1,1,0,0,0,0,1.93H189A1,1,0,0,0,189.93,335.52Zm0,4.46a1,1,0,0,0-1-1h-3.9a1,1,0,0,0,0,1.93H189A1,1,0,0,0,189.93,340Zm0,4.46a1,1,0,0,0-1-1h-3.9a1,1,0,0,0,0,1.93H189A1,1,0,0,0,189.93,344.44Zm14.61-31.22a1,1,0,0,0-1-1H193.33a1,1,0,1,0,0,1.92h10.24A1,1,0,0,0,204.54,313.22Zm0,4.46a1,1,0,0,0-1-1H193.33a1,1,0,1,0,0,1.92h10.24A1,1,0,0,0,204.54,317.68Zm0,4.46a1,1,0,0,0-1-1H193.33a1,1,0,1,0,0,1.92h10.24A1,1,0,0,0,204.54,322.14Zm0,4.46a1,1,0,0,0-1-1H193.33a1,1,0,0,0,0,1.92h10.24A1,1,0,0,0,204.54,326.6Zm0,4.46a1,1,0,0,0-1-1H193.33a1,1,0,0,0,0,1.92h10.24A1,1,0,0,0,204.54,331.06Zm12.26,4.46a1,1,0,0,0-1-1H205.6a1,1,0,1,0,0,1.93h10.24A1,1,0,0,0,216.8,335.52Zm0,4.46a1,1,0,0,0-1-1H205.6a1,1,0,1,0,0,1.93h10.24A1,1,0,0,0,216.8,340Zm0,4.46a1,1,0,0,0-1-1H205.6a1,1,0,1,0,0,1.93h10.24A1,1,0,0,0,216.8,344.44Zm-7.75-31.22a1.12,1.12,0,1,0-2.23,0,1.12,1.12,0,0,0,2.23,0Zm3.34,0a1.12,1.12,0,1,0-1.11,1.11A1.12,1.12,0,0,0,212.39,313.22Zm3.35,0a1.12,1.12,0,1,0-1.12,1.11A1.12,1.12,0,0,0,215.74,313.22Zm3.34,0a1.12,1.12,0,1,0-1.11,1.11A1.12,1.12,0,0,0,219.08,313.22Zm3.35,0a1.12,1.12,0,1,0-1.12,1.11A1.12,1.12,0,0,0,222.43,313.22Zm3.34,0a1.12,1.12,0,1,0-1.11,1.11A1.12,1.12,0,0,0,225.77,313.22Zm-16.72,8.92a1.12,1.12,0,1,0-1.12,1.12A1.12,1.12,0,0,0,209.05,322.14Zm3.34,0a1.12,1.12,0,1,0-1.11,1.12A1.11,1.11,0,0,0,212.39,322.14Zm3.35,0a1.12,1.12,0,1,0-1.12,1.12A1.12,1.12,0,0,0,215.74,322.14Zm3.34,0a1.12,1.12,0,1,0-1.11,1.12A1.11,1.11,0,0,0,219.08,322.14Zm3.35,0a1.12,1.12,0,1,0-1.12,1.12A1.12,1.12,0,0,0,222.43,322.14Zm3.34,0a1.12,1.12,0,1,0-1.11,1.12A1.11,1.11,0,0,0,225.77,322.14ZM220.48,335a1.12,1.12,0,1,0-1.12,1.11A1.12,1.12,0,0,0,220.48,335Zm3.34,0a1.12,1.12,0,1,0-1.11,1.11A1.12,1.12,0,0,0,223.82,335Zm3.35,0a1.12,1.12,0,1,0-1.12,1.11A1.12,1.12,0,0,0,227.17,335Zm3.34,0a1.12,1.12,0,1,0-1.11,1.11A1.12,1.12,0,0,0,230.51,335Zm3.35,0a1.12,1.12,0,1,0-1.12,1.11A1.12,1.12,0,0,0,233.86,335Zm3.34,0a1.12,1.12,0,1,0-1.11,1.11A1.12,1.12,0,0,0,237.2,335Zm-16.72,9.2a1.12,1.12,0,1,0-1.12,1.11A1.12,1.12,0,0,0,220.48,344.17Zm3.34,0a1.12,1.12,0,1,0-1.11,1.11A1.12,1.12,0,0,0,223.82,344.17Zm3.35,0a1.12,1.12,0,1,0-1.12,1.11A1.12,1.12,0,0,0,227.17,344.17Zm3.34,0a1.12,1.12,0,1,0-1.11,1.11A1.12,1.12,0,0,0,230.51,344.17Zm3.35,0a1.12,1.12,0,1,0-1.12,1.11A1.12,1.12,0,0,0,233.86,344.17Zm3.34,0a1.12,1.12,0,1,0-1.11,1.11A1.12,1.12,0,0,0,237.2,344.17Z"></path></g><rect x="322.41" y="93.5" width="66.61" height="23.27" rx="8.62" style="fill:#fff;stroke:#263238;stroke-linecap:round;stroke-linejoin:round"></rect><rect x="403.46" y="93.5" width="66.61" height="23.27" rx="8.62" style="fill:#92E3A9;stroke:#263238;stroke-linecap:round;stroke-linejoin:round"></rect><rect x="484.51" y="93.5" width="66.61" height="23.27" rx="8.62" style="fill:#92E3A9;stroke:#263238;stroke-linecap:round;stroke-linejoin:round"></rect><line x1="285.36" y1="299.54" x2="349.02" y2="299.54" style="fill:none;stroke:#263238;stroke-linecap:round;stroke-linejoin:round"></line><line x1="285.36" y1="312.35" x2="349.02" y2="312.35" style="fill:none;stroke:#263238;stroke-linecap:round;stroke-linejoin:round"></line><line x1="285.36" y1="325.17" x2="349.02" y2="325.17" style="fill:none;stroke:#263238;stroke-linecap:round;stroke-linejoin:round"></line><line x1="285.36" y1="337.99" x2="349.02" y2="337.99" style="fill:none;stroke:#263238;stroke-linecap:round;stroke-linejoin:round"></line><line x1="285.36" y1="350.81" x2="349.02" y2="350.81" style="fill:none;stroke:#263238;stroke-linecap:round;stroke-linejoin:round"></line><line x1="360.55" y1="299.54" x2="424.2" y2="299.54" style="fill:none;stroke:#263238;stroke-linecap:round;stroke-linejoin:round"></line><line x1="360.55" y1="312.35" x2="424.2" y2="312.35" style="fill:none;stroke:#263238;stroke-linecap:round;stroke-linejoin:round"></line><line x1="360.55" y1="325.17" x2="424.2" y2="325.17" style="fill:none;stroke:#263238;stroke-linecap:round;stroke-linejoin:round"></line><line x1="360.55" y1="337.99" x2="424.2" y2="337.99" style="fill:none;stroke:#263238;stroke-linecap:round;stroke-linejoin:round"></line><line x1="360.55" y1="350.81" x2="424.2" y2="350.81" style="fill:none;stroke:#263238;stroke-linecap:round;stroke-linejoin:round"></line><rect x="285.15" y="178.49" width="142.26" height="103.96" style="fill:#92E3A9;stroke:#263238;stroke-linecap:round;stroke-linejoin:round"></rect><polygon points="427.4 220.36 407.86 208.97 371.91 248.84 341.42 233.99 285.15 282.45 427.4 282.45 427.4 220.36" style="fill:#fff;stroke:#263238;stroke-linecap:round;stroke-linejoin:round"></polygon><circle cx="312.5" cy="204.29" r="14.07" transform="translate(61.88 481.02) rotate(-81.01)" style="fill:#fff;stroke:#263238;stroke-linecap:round;stroke-linejoin:round"></circle></g><g id="freepik--character-3--inject-4"><path d="M639.9,114.5l-1.35-7.14-6-5.14-7.88,11.32a24.18,24.18,0,0,0,3.48,1.16c.58,0,3.28,4.63,4.83,6a5.42,5.42,0,0,0,3.28,1.36s13.13,43.07,13.71,44.23,27.82,28.39,27.82,28.39l6.76-18-25.88-19.32Z" style="fill:#fff;stroke:#263238;stroke-miterlimit:10"></path><path d="M642.68,120.87l-5.57,4c2.95,9.66,12.35,40.37,12.83,41.35.58,1.16,27.82,28.39,27.82,28.39l6.76-18-25.88-19.32Z" style="fill:#92E3A9;stroke:#263238;stroke-linecap:round;stroke-linejoin:round"></path><path d="M675.39,246.29l-1.27,24.25,23.65,4.55,16.88-3.74a36.2,36.2,0,0,0-4.34-30Z" style="fill:#263238;stroke:#263238;stroke-linecap:round;stroke-linejoin:round"></path><path d="M674.55,182.51s-10.11,26.35-7.66,35.84a29.26,29.26,0,0,0,8.5,14.46s-1.84,11.34,0,13.48,16.85.92,21.75.31,12.56-2.45,13.17-5.21-2.6-18.07-2.6-19-4.68-25.19-6.82-31.32-7-13.17-7-13.17Z" style="fill:#92E3A9;stroke:#263238;stroke-linecap:round;stroke-linejoin:round"></path><path d="M661.76,362.43l-3.87,5.14s-8.34,3.87-8.14,4.48,2,1.42,3.87,1.42,6.51-.4,6.51-.4l9.56-2.85s3.66-.81,3.46-3.26a47.47,47.47,0,0,0-2-7.73Z" style="fill:#fff;stroke:#263238;stroke-linecap:round;stroke-linejoin:round"></path><path d="M675.94,256s-34.88,44.9-33.06,50.36,18.88,56.09,18.88,56.09l9.36-3.2-7.27-48.76,26.65-23.1,3.63-26.84" style="fill:#263238;stroke:#263238;stroke-linecap:round;stroke-linejoin:round"></path><path d="M683.34,403.87s-7.54,6.62-8.28,7.36-9.75,3.13-9.93,4.6,3.86,2.57,4.6,2.57,11-.87,12.42-.53,12.41-1.86,12.78-3-1.66-10.12-1.66-10.12Z" style="fill:#fff;stroke:#263238;stroke-linecap:round;stroke-linejoin:round"></path><polyline points="683.22 255.53 679.11 331.7 681.78 405.65 693.61 406.56 699.44 332.17 714.65 271.35" style="fill:#263238;stroke:#263238;stroke-linecap:round;stroke-linejoin:round"></polyline><path d="M676.4,182.19c-.4-6.67-4.79-12.18-4.79-12.18s-5.35.42-7.42-.23-1.33-4.41-.78-6,.17-7.05.17-7.05a16.79,16.79,0,0,1-1.8-3.28c-.1-.76,3.8-1.94,4.74-3s.55-2.82,1.48-6.3,5.09-8.53,5.09-8.53,1.42-1.88,5-.79,9.7,12.55,12.64,16.93,2.32,12.43,1.81,14-2.91,4.18-3.27,6-1.42,3.21,1.3,6.78" style="fill:#fff;stroke:#263238;stroke-miterlimit:10"></path><line x1="669.22" y1="149.07" x2="668.31" y2="151.74" style="fill:none;stroke:#263238;stroke-miterlimit:10"></line><path d="M668.51,145.89s2.33-3.16,3,1" style="fill:none;stroke:#263238;stroke-miterlimit:10"></path><path d="M666.76,158.66l.37,1a3.23,3.23,0,0,1-2.56.44" style="fill:none;stroke:#263238;stroke-miterlimit:10"></path><path d="M682.5,153.6s-4.42-1.11-3.86-2.71,2.25-2.74-.16-5.41-4.77-6.8-3.88-8.82-3.06.62-3.39-.18l-.33-.79-.19-1.51s.69-4.75,4.68-5.18,4.51.64,6.81.11,14.2,1.08,18.93,9.34,4.77,19.25,0,23.68-10.17,8.26-14.26,8-2-11.13-1.55-13.25S682.5,153.6,682.5,153.6Z" style="fill:#263238;stroke:#263238;stroke-miterlimit:10"></path><path d="M699,136.08s1.67-2.71,3.32-2.39,7,1,4.55,3-3.57,4.13-5.72,1.77Z" style="fill:#263238;stroke:#263238;stroke-miterlimit:10"></path><path d="M702.28,133.69s-3.74-2.25-.5-6.18,10.53-1.35,12.78,2.7-1.07,6.44-3.23,6.78a5.71,5.71,0,0,1-4.1-1.38Z" style="fill:#263238;stroke:#263238;stroke-miterlimit:10"></path><path d="M680.91,154.26s5.29-4.58,7-1.06-4.57,8.38-6.78,8.44a2.43,2.43,0,0,1-2.64-1.5" style="fill:#fff;stroke:#263238;stroke-miterlimit:10"></path><polygon points="692.81 171.86 671.82 179.13 672.05 186.22 695.6 177.63 692.81 171.86" style="fill:#fff;stroke:#263238;stroke-miterlimit:10"></polygon><rect x="569.47" y="96.04" width="66.61" height="23.27" rx="8.62" transform="translate(23.49 -90.72) rotate(8.78)" style="fill:#92E3A9;stroke:#263238;stroke-linecap:round;stroke-linejoin:round"></rect><path d="M639.9,114.5l-2.46-5.29-5.27-5.33c-.58-.58-2.51-1.16-2.7,1.16s3.86,4.63,3.86,4.63.39,6.38,1.36,7.54,4,1.74,4,1.74" style="fill:#fff;stroke:#263238;stroke-linecap:round;stroke-linejoin:round"></path><rect x="575.64" y="288.12" width="60.77" height="6.81" style="fill:#c7c7c7;stroke:#263238;stroke-linecap:round;stroke-linejoin:round"></rect><polygon points="653.24 335.17 652.44 329.82 634.37 329.82 631.46 335.17 653.24 335.17" style="fill:#c7c7c7;stroke:#263238;stroke-linecap:round;stroke-linejoin:round"></polygon><polygon points="667.6 379.19 666.8 373.85 648.73 373.85 645.82 379.19 667.6 379.19" style="fill:#c7c7c7;stroke:#263238;stroke-linecap:round;stroke-linejoin:round"></polygon><polygon points="682.95 423.22 682.15 417.87 664.07 417.87 661.16 423.22 682.95 423.22" style="fill:#c7c7c7;stroke:#263238;stroke-linecap:round;stroke-linejoin:round"></polygon><path d="M532.59,482.19c24.8-82.32,63.52-207.74,67.36-214.5,3.81-5.92,13.39-6.53,13.59-6.55a4,4,0,0,0-.38-7.91c-.56,0-13.82.77-19.87,10.18-5,7.83-58.12,182.74-69,218.78Z" style="fill:#c7c7c7;stroke:#263238;stroke-linecap:round;stroke-linejoin:round"></path><polygon points="606.31 254.46 608.72 261.5 611.34 261.3 608.52 253.86 606.31 254.46" style="fill:#263238;stroke:#263238;stroke-linecap:round;stroke-linejoin:round"></polygon><path d="M689.63,482.19h8.43L593.66,187.84a4,4,0,0,0-7.45,2.71Z" style="fill:#c7c7c7;stroke:#263238;stroke-linecap:round;stroke-linejoin:round"></path><path d="M685.63,186.65a16.59,16.59,0,0,0-6.64-.19C674.58,187,652.77,208,652.77,208s-12.57-1.15-18.09-1.15-29.28-3.59-29.28-3.59l-.55,8.83,48.76,12.14a3.44,3.44,0,0,0,2.57-.37l29.26-17.25" style="fill:#92E3A9;stroke:#263238;stroke-linecap:round;stroke-linejoin:round"></path><path d="M605.4,203.21l-8.34-3.89-4.36-2.9s-2.61.58-1.74,2.32,4.36,3.2,4.36,3.2l-5,.83a3,3,0,0,0-2.46,2.31h0a3,3,0,0,0,1,3l.64.54s-.58,3.49,1.74,4.65,13.6-1.23,13.6-1.23Z" style="fill:#fff;stroke:#263238;stroke-linecap:round;stroke-linejoin:round"></path></g><g id="freepik--character-2--inject-4"><polygon points="460.66 235.89 475.75 294.89 458 298.44 454.45 284.69 460.66 235.89" style="fill:#fff;stroke:#263238;stroke-linecap:round;stroke-linejoin:round"></polygon><path d="M415.38,462.87a69.58,69.58,0,0,0-1.18,7.58c0,1.79-2.3,8.69-1.54,10.48s2.81,1.28,5.11,1.54,12.78,0,12.78,0a9.51,9.51,0,0,0,.77-6.14,28.54,28.54,0,0,0-2.87-6.85l0-7Z" style="fill:#fff;stroke:#263238;stroke-linecap:round;stroke-linejoin:round"></path><path d="M431.52,478.64H412.6a5,5,0,0,0,.06,2.29c.77,1.79,2.81,1.28,5.11,1.54s12.78,0,12.78,0A9.55,9.55,0,0,0,431.52,478.64Z" style="fill:#fff;stroke:#263238;stroke-linecap:round;stroke-linejoin:round"></path><path d="M457.46,469.13l6,4.23s10.92,2.81,11.45,4.75.17,2.81-.71,3.34-29.92,1.06-30.28,0,.88-7.39.88-9.15.07-3.09.07-3.09Z" style="fill:#fff;stroke:#263238;stroke-linecap:round;stroke-linejoin:round"></path><path d="M475.13,479.78,444,478.89a9,9,0,0,0-.09,2.56c.36,1.06,29.4.53,30.28,0A1.86,1.86,0,0,0,475.13,479.78Z" style="fill:#fff;stroke:#263238;stroke-linecap:round;stroke-linejoin:round"></path><polygon points="413.81 307.76 412.42 342.99 414.51 469.48 428.98 469.48 438.66 357.3 444.86 469.21 458.94 469.21 461.32 344.18 460.82 303.02 413.81 307.76" style="fill:#263238;stroke:#263238;stroke-linecap:round;stroke-linejoin:round"></polygon><polygon points="423.4 229.17 402.55 241.66 414.08 307.76 458.45 307.76 460.66 235.89 441.14 230.12 423.4 229.17" style="fill:#fff;stroke:#263238;stroke-linecap:round;stroke-linejoin:round"></polygon><polygon points="446.59 246.32 452.03 234.2 444.88 229.67 446.59 246.32" style="fill:#fff;stroke:#263238;stroke-linecap:round;stroke-linejoin:round"></polygon><polygon points="452.03 234.2 454.1 244.1 449.01 241.58 452.03 234.2" style="fill:#fff;stroke:#263238;stroke-linecap:round;stroke-linejoin:round"></polygon><path d="M446,188.7s5.73,19.36,6.15,27.43-2.05,11.52-4.11,12.21l-1.83.7.39,17.28-6.19-8.76-.53-3-12-11.76-2.71-7.6s-4.59.92-6.06-3.23.31-6.45.31-6.45-6.13-6.45-4-14.29,7.72-15.67,18.32-15.67S451.6,182,446,188.7Z" style="fill:#fff;stroke:#263238;stroke-linecap:round;stroke-linejoin:round"></path><path d="M415.39,191.24c2.13-7.84,7.72-15.67,18.32-15.67S451.6,182,446,188.7c0,0-3.62,3-6.17,2.54s-4.2-2.31-8.52,0-4.75,4.15-3.3,7.14,1.25,4.38.58,5.53c-.07.13-.14.28-.22.44l4.16,10.4s1.32-2.77,6.8-5.07,12,1.15,12,1.15c4.28,18.63-5.13,18.21-5.13,18.21S435.09,227,431.8,224s-3.8-5.08-4.1-8.3c-.18-1.92-.17-6.19-.13-9.35-.3.83-.51,1.51-.51,1.51a5.67,5.67,0,0,0-3.29-2.76,6.15,6.15,0,0,0-4.37.46S413.27,199.08,415.39,191.24Z" style="fill:#263238;stroke:#263238;stroke-linecap:round;stroke-linejoin:round"></path><path d="M441.6,198.61l2,5.77s6.54,3.91,5.16,4.37-6-.92-6-.92" style="fill:none;stroke:#263238;stroke-linecap:round;stroke-linejoin:round"></path><path d="M448.87,214.29s-2.71,2.76-7.85-.7" style="fill:none;stroke:#fff;stroke-linecap:round;stroke-linejoin:round"></path><path d="M437.17,203.72c.15.8.7,1.38,1.22,1.29s.83-.81.67-1.61-.7-1.38-1.22-1.29S437,202.92,437.17,203.72Z" style="fill:#263238"></path><path d="M445.3,202.59c.16.8.7,1.38,1.23,1.29s.82-.81.66-1.62-.7-1.38-1.22-1.29S445.15,201.78,445.3,202.59Z" style="fill:#263238"></path><path d="M447.16,197.78a4.9,4.9,0,0,0-4.19,0" style="fill:none;stroke:#263238;stroke-linecap:round;stroke-linejoin:round"></path><path d="M438.45,198.35a5.64,5.64,0,0,0-4.71,2" style="fill:none;stroke:#263238;stroke-linecap:round;stroke-linejoin:round"></path><polygon points="440.4 237.56 438.34 244.43 423.4 229.17 427.86 222.81 439.87 234.57 440.4 237.56" style="fill:#fff;stroke:#263238;stroke-linecap:round;stroke-linejoin:round"></polygon><path d="M394.86,303.49l51.92-1.76,11.43-7.55s13.07-3.67,10.82-3.94-11-4.94-14.9-2.87-8.34,7.32-8.34,7.32l-34.6-4.47Z" style="fill:#fff;stroke:#263238;stroke-linecap:round;stroke-linejoin:round"></path><polygon points="482.5 305.42 476.89 302.4 485.06 298.79 482.5 305.42" style="fill:#fff;stroke:#263238;stroke-linecap:round;stroke-linejoin:round"></polygon><polygon points="433.6 306.87 461.55 309.53 499.26 294.45 472.64 292.68 433.6 306.87" style="fill:#92E3A9;stroke:#263238;stroke-linecap:round;stroke-linejoin:round"></polygon><polygon points="461.55 309.53 465.54 262.95 505.03 251.42 499.26 294.45 461.55 309.53" style="fill:#92E3A9;stroke:#263238;stroke-linecap:round;stroke-linejoin:round"></polygon><path d="M412.31,236.78s-11.54,4-13.75,7.54-5.77,52.79-5.77,52.79l18.63-6.21,1.78-32.83" style="fill:#fff;stroke:#263238;stroke-linecap:round;stroke-linejoin:round"></path><polygon points="414.97 290.9 396.39 306.12 391.13 296.8 414.08 285.58 414.97 290.9" style="fill:#fff;stroke:#263238;stroke-linecap:round;stroke-linejoin:round"></polygon><path d="M492.27,297.11s1.2,4.08,2.16,4.08,2.89-1.2,1.93-2.88S492.83,294.89,492.27,297.11Z" style="fill:#fff;stroke:#263238;stroke-linecap:round;stroke-linejoin:round"></path><path d="M484.32,297s-3.15,7.58-1.82,8.47,9.32-2.22,9.76-4,2.27-12.47-.39-11.58S485.21,294.28,484.32,297Z" style="fill:#fff;stroke:#263238;stroke-linecap:round;stroke-linejoin:round"></path></g><g id="freepik--character-1--inject-4"><rect x="113.74" y="179.16" width="160.75" height="102.82" style="fill:#fff;stroke:#263238;stroke-linecap:round;stroke-linejoin:round"></rect><line x1="113.74" y1="179.16" x2="274.5" y2="281.98" style="fill:#fff;stroke:#263238;stroke-linecap:round;stroke-linejoin:round"></line><line x1="274.5" y1="179.16" x2="113.74" y2="281.98" style="fill:#fff;stroke:#263238;stroke-linecap:round;stroke-linejoin:round"></line><path d="M114.87,207.75s6.09-4.73,6.57-6.52.19-12.84.19-12.84.52-1.64-1.31-1.49-1.95,1.67-2.13,2.33-1.2,7.82-1.2,7.82l-1.91-3.49-1-12.15s-2,.38-2.45,1.06-4.14,8.72-4.74,9.84-1.19,13.63-1.19,13.63l.46,8.33,5.92,2.58Z" style="fill:#fff;stroke:#263238;stroke-linecap:round;stroke-linejoin:round"></path><path d="M114.41,213.37l-9.23-4.28S88.51,239.4,87.25,244s-2,12.88-1.27,16.66,4,7.58,4.8,8.34,16.67-3.79,16.67-3.79l1-25Z" style="fill:#92E3A9;stroke:#263238;stroke-miterlimit:10"></path><path d="M151.07,205.21s2.19,3.71,2.44,5.69.74,6.17.74,6.17,1.73,4.69,1.48,6.18-2.71,3-2.71,3-1.73,7.66-2.72,9.88-10.62-.74-10.62-.74l-2.47,5.93-18-4.7,2.47-11.11-4-19.27s4.69-7.9,7.9-8.89S147.4,196.55,151.07,205.21Z" style="fill:#fff;stroke:#263238;stroke-miterlimit:10"></path><path d="M151.82,215.46c0,1.07-.24,1.93-.53,1.93s-.54-.86-.54-1.93.24-1.92.54-1.92S151.82,214.4,151.82,215.46Z" style="fill:#263238"></path><path d="M150.24,211.83s.62-2.47,2.62-.92" style="fill:none;stroke:#263238;stroke-miterlimit:10"></path><path d="M151.27,227s-2.93.92-4.16-2.47" style="fill:none;stroke:#263238;stroke-miterlimit:10"></path><path d="M151.07,205.21s-6.65-.34-6.41.37,2.65,2.68,1.94,4.58-3.46,4.44-3.46,4.44-2,5.43-2.75,6.15-1.51-3-2.69-4.69-3.7-1.71-5.92,1.26c-1.4,1.86-.86,9.82-1.57,10.53s-7.46.41-7.46.41-4.7-6.7-8.45-12.91,4.4-19,6.43-20.66c3.55-2.85,10.66-3.08,12.56-3.08s0-2.13,2.84-2.13a13.51,13.51,0,0,1,5.92,1.89s-2.37-3.55,1.66-1.89S157,200.09,151.07,205.21Z" style="fill:#263238;stroke:#263238;stroke-miterlimit:10"></path><path d="M132.52,221.76s.49,3,2.47,4.2,3.21.25,3.21.25-.25,3.7.49,4.69" style="fill:none;stroke:#263238;stroke-miterlimit:10"></path><path d="M133.37,471.84a1.52,1.52,0,0,0-1.24,1.25c-.35,2.22-1.09,7.2-.65,7.84.55.84,18.65,3.9,23.1,3.9s12.81,1.11,13.64-.56,1.39-2.22.28-2.78-10.58-4.73-12.53-6.4a59.67,59.67,0,0,1-5-5.46,1.47,1.47,0,0,0-1.4-.52Z" style="fill:#92E3A9;stroke:#263238;stroke-miterlimit:10"></path><path d="M168.22,484.27l.22-.42c-2.64-.1-6.6-.26-11.07-.41-5.83-.2-17.88-3-24.14-4.56a1.52,1.52,0,0,0-1.87,1.61,1.07,1.07,0,0,0,.12.44c.55.84,18.65,3.9,23.1,3.9S167.39,485.94,168.22,484.27Z" style="fill:#fff;stroke:#263238;stroke-miterlimit:10"></path><path d="M78.42,469.86a1.54,1.54,0,0,1,.67.62,55.59,55.59,0,0,0,3.67,6c.83.83,3.34,2.23,3.34,3.34v1a1.51,1.51,0,0,1-1.51,1.5H64.86a1.5,1.5,0,0,1-1.51-1.61,67.27,67.27,0,0,1,1.59-9.8C66.42,464.5,76.21,468.8,78.42,469.86Z" style="fill:#92E3A9;stroke:#263238;stroke-miterlimit:10"></path><path d="M86.1,479.82a1.15,1.15,0,0,0-.18-.56H64.86a1.51,1.51,0,0,0-1.5,1.4v0a1.51,1.51,0,0,0,1.51,1.62H84.59a1.51,1.51,0,0,0,1.51-1.5Z" style="fill:#fff;stroke:#263238;stroke-miterlimit:10"></path><path d="M78.1,312.89s1.31,27.54,1.31,38.12v46.77s-7.52,20-8.63,29.51c-1,8.37-5.13,38.6-6,44.16a1.49,1.49,0,0,0,.91,1.6,23.86,23.86,0,0,0,5.88,1.76c2.17.21,5-1.26,6.17-1.92a1.46,1.46,0,0,0,.68-.86c.55-1.74,2.29-7.2,3.45-9.75,1.39-3.06,20.59-59.49,21.71-63.94s1.11-16.71,1.11-16.71L107,351.29h3.34L139,399.73s-2.78,17-2.78,25.61c0,7.58-3.34,41.09-4,47.75a1.5,1.5,0,0,0,1.3,1.64,59,59,0,0,0,10,.63c3.27-.21,6.71-2.65,8-3.7a1.49,1.49,0,0,0,.59-1.19v-4c0-1.67-.56-2.79-.56-3.9s11.68-61.72,10.57-66.73-21.16-55.95-21.16-55.95l-1.76-20Z" style="fill:#263238;stroke:#263238;stroke-miterlimit:10"></path><path d="M141.51,295.4a89.27,89.27,0,0,1,6.6-19.24c1-2.16,2.69-16.11,2.17-22.37a9.32,9.32,0,0,0-5.42-7.47c-3.73-.9-6.18-1.31-6.18-1.31l-30.14-8.6S101,235,96.26,239.17s-7.88,15.72-8.13,19.37.86,35.71-8.59,49.64c-4.75,7,2.89,12.65,2.89,12.65s13.35,2.82,25.19,4.86c41.15,7.07,32.8-6.52,32.8-6.52A67.13,67.13,0,0,1,141.51,295.4Z" style="fill:#92E3A9;stroke:#263238;stroke-miterlimit:10"></path><path d="M143.2,245.61s-4.76-5.69-9.16-7.19-16.29-3.78-20.78-4.6a5.53,5.53,0,0,0-6.16,3.09,53.24,53.24,0,0,0,15.53,6A186.61,186.61,0,0,0,143.2,245.61Z" style="fill:#fff;stroke:#263238;stroke-linecap:round;stroke-linejoin:round"></path><path d="M227.39,283.18s3.79-5.38,5.35-5.9,11.49-1,11.49-1,1.42-.54,1.42,1-1.34,1.73-1.92,1.92-6.92,1.54-6.92,1.54l3.27,1.34H251s-.19,1.73-.76,2.12-7.5,4-8.46,4.61-12.11,1.92-12.11,1.92l-7.5.19.2-6.92Z" style="fill:#fff;stroke:#263238;stroke-linecap:round;stroke-linejoin:round"></path><path d="M144.86,246.32s5.89,1,9.35,4.46,18.95,20.79,18.95,20.79L225,284l.33,9.09-58.26.24-27.48-10.88" style="fill:#92E3A9;stroke:#263238;stroke-miterlimit:10"></path></g><g id="freepik--speech-bubble-2--inject-4"><path d="M479.42,157.55a22.79,22.79,0,0,0-17.67,37.17l-3.29,10.82,10.6-4.92a22.78,22.78,0,1,0,10.36-43.07Z" style="fill:#fff;stroke:#263238;stroke-linecap:round;stroke-linejoin:round"></path><path d="M477,190l-.29,0a3,3,0,0,1-2.34-1.51L466.16,174a3,3,0,1,1,5.26-3l6.12,10.78L494,162.68a3,3,0,1,1,4.59,3.94L479.32,189A3,3,0,0,1,477,190Z" style="fill:#92E3A9;stroke:#263238;stroke-linecap:round;stroke-linejoin:round"></path></g><g id="freepik--speech-bubble-1--inject-4"><path d="M77.35,134.74A22.78,22.78,0,0,1,95,171.9l3.29,10.83-10.6-4.93a22.78,22.78,0,1,1-10.36-43.06Z" style="fill:#fff;stroke:#263238;stroke-linecap:round;stroke-linejoin:round"></path><path d="M69,166.25l-9.77-6.88v-3.92L69,148.58v4.3l-6.27,4.53L69,161.94Z" style="fill:#263238"></path><path d="M72.14,169l7.78-26h2.86L75,169Z" style="fill:#263238"></path><path d="M85.83,166.25v-4.31l6.3-4.56-6.3-4.5v-4.3l9.8,6.87v3.92Z" style="fill:#263238"></path></g></svg>
